{
 "cells": [
  {
   "cell_type": "code",
   "execution_count": 1,
   "metadata": {
    "colab": {
     "base_uri": "https://localhost:8080/"
    },
    "id": "BerurhI2xdKX",
    "outputId": "d8e21309-d8d8-4ebf-a53c-28f2cc024223"
   },
   "outputs": [
    {
     "name": "stdout",
     "output_type": "stream",
     "text": [
      "  Preparing metadata (setup.py) ... \u001b[?25l\u001b[?25hdone\n",
      "\u001b[2K   \u001b[90m━━━━━━━━━━━━━━━━━━━━━━━━━━━━━━━━━━━━━━━━\u001b[0m \u001b[32m55.1/55.1 kB\u001b[0m \u001b[31m5.0 MB/s\u001b[0m eta \u001b[36m0:00:00\u001b[0m\n",
      "\u001b[2K   \u001b[90m━━━━━━━━━━━━━━━━━━━━━━━━━━━━━━━━━━━━━━━━\u001b[0m \u001b[32m133.4/133.4 kB\u001b[0m \u001b[31m9.8 MB/s\u001b[0m eta \u001b[36m0:00:00\u001b[0m\n",
      "\u001b[2K   \u001b[90m━━━━━━━━━━━━━━━━━━━━━━━━━━━━━━━━━━━━━━━━\u001b[0m \u001b[32m42.6/42.6 kB\u001b[0m \u001b[31m3.4 MB/s\u001b[0m eta \u001b[36m0:00:00\u001b[0m\n",
      "\u001b[2K   \u001b[90m━━━━━━━━━━━━━━━━━━━━━━━━━━━━━━━━━━━━━━━━\u001b[0m \u001b[32m58.8/58.8 kB\u001b[0m \u001b[31m5.4 MB/s\u001b[0m eta \u001b[36m0:00:00\u001b[0m\n",
      "\u001b[2K   \u001b[90m━━━━━━━━━━━━━━━━━━━━━━━━━━━━━━━━━━━━━━━━\u001b[0m \u001b[32m65.0/65.0 kB\u001b[0m \u001b[31m5.8 MB/s\u001b[0m eta \u001b[36m0:00:00\u001b[0m\n",
      "\u001b[2K   \u001b[90m━━━━━━━━━━━━━━━━━━━━━━━━━━━━━━━━━━━━━━━━\u001b[0m \u001b[32m2.2/2.2 MB\u001b[0m \u001b[31m84.4 MB/s\u001b[0m eta \u001b[36m0:00:00\u001b[0m\n",
      "\u001b[2K   \u001b[90m━━━━━━━━━━━━━━━━━━━━━━━━━━━━━━━━━━━━━━━━\u001b[0m \u001b[32m8.7/8.7 MB\u001b[0m \u001b[31m115.4 MB/s\u001b[0m eta \u001b[36m0:00:00\u001b[0m\n",
      "\u001b[2K   \u001b[90m━━━━━━━━━━━━━━━━━━━━━━━━━━━━━━━━━━━━━━━━\u001b[0m \u001b[32m207.3/207.3 kB\u001b[0m \u001b[31m17.8 MB/s\u001b[0m eta \u001b[36m0:00:00\u001b[0m\n",
      "\u001b[2K   \u001b[90m━━━━━━━━━━━━━━━━━━━━━━━━━━━━━━━━━━━━━━━━\u001b[0m \u001b[32m6.9/6.9 MB\u001b[0m \u001b[31m111.4 MB/s\u001b[0m eta \u001b[36m0:00:00\u001b[0m\n",
      "\u001b[2K   \u001b[90m━━━━━━━━━━━━━━━━━━━━━━━━━━━━━━━━━━━━━━━━\u001b[0m \u001b[32m83.0/83.0 kB\u001b[0m \u001b[31m133.6 kB/s\u001b[0m eta \u001b[36m0:00:00\u001b[0m\n",
      "\u001b[2K   \u001b[90m━━━━━━━━━━━━━━━━━━━━━━━━━━━━━━━━━━━━━━━━\u001b[0m \u001b[32m62.7/62.7 kB\u001b[0m \u001b[31m5.5 MB/s\u001b[0m eta \u001b[36m0:00:00\u001b[0m\n",
      "\u001b[2K   \u001b[90m━━━━━━━━━━━━━━━━━━━━━━━━━━━━━━━━━━━━━━━━\u001b[0m \u001b[32m1.2/1.2 MB\u001b[0m \u001b[31m48.8 MB/s\u001b[0m eta \u001b[36m0:00:00\u001b[0m\n",
      "\u001b[2K   \u001b[90m━━━━━━━━━━━━━━━━━━━━━━━━━━━━━━━━━━━━━━━━\u001b[0m \u001b[32m53.6/53.6 kB\u001b[0m \u001b[31m4.8 MB/s\u001b[0m eta \u001b[36m0:00:00\u001b[0m\n",
      "\u001b[2K   \u001b[90m━━━━━━━━━━━━━━━━━━━━━━━━━━━━━━━━━━━━━━━━\u001b[0m \u001b[32m19.7/19.7 MB\u001b[0m \u001b[31m69.2 MB/s\u001b[0m eta \u001b[36m0:00:00\u001b[0m\n",
      "\u001b[?25h  Building wheel for googletrans (setup.py) ... \u001b[?25l\u001b[?25hdone\n",
      "\u001b[K\u001b[?25h\n",
      "added 22 packages, and audited 23 packages in 3s\n",
      "\n",
      "3 packages are looking for funding\n",
      "  run `npm fund` for details\n",
      "\n",
      "1 \u001b[33m\u001b[1mmoderate\u001b[22m\u001b[39m severity vulnerability\n",
      "\n",
      "To address all issues (including breaking changes), run:\n",
      "  npm audit fix --force\n",
      "\n",
      "Run `npm audit` for details.\n"
     ]
    }
   ],
   "source": [
    "!pip install diffusers transformers accelerate scipy safetensors accelerate streamlit googletrans==3.1.0a0 -q\n",
    "!npm install -g localtunnel -q"
   ]
  },
  {
   "cell_type": "code",
   "execution_count": 6,
   "metadata": {
    "colab": {
     "base_uri": "https://localhost:8080/"
    },
    "id": "VwCNYKMfspt-",
    "outputId": "2c97d684-d658-4758-c073-ce573d068bdb"
   },
   "outputs": [
    {
     "name": "stdout",
     "output_type": "stream",
     "text": [
      "Overwriting app.py\n"
     ]
    }
   ],
   "source": [
    "%%writefile app.py\n",
    "\n",
    "import streamlit as st\n",
    "import torch\n",
    "from googletrans import Translator\n",
    "from diffusers import StableDiffusionPipeline, DiffusionPipeline, DPMSolverMultistepScheduler\n",
    "from diffusers.utils import export_to_video\n",
    "import subprocess\n",
    "import os\n",
    "\n",
    "# Cache the image model loading function\n",
    "@st.cache_resource\n",
    "def load_image_model():\n",
    "    model_id = \"stabilityai/stable-diffusion-2\"\n",
    "    device = \"cuda\" if torch.cuda.is_available() else \"cpu\"\n",
    "    model = StableDiffusionPipeline.from_pretrained(model_id, torch_dtype=torch.float16)\n",
    "    return model.to(device)\n",
    "\n",
    "# Cache the video model loading function\n",
    "@st.cache_resource\n",
    "def load_video_model():\n",
    "    model_id = \"damo-vilab/text-to-video-ms-1.7b\"\n",
    "    model = DiffusionPipeline.from_pretrained(model_id, torch_dtype=torch.float16, variant=\"fp16\")\n",
    "    model.scheduler = DPMSolverMultistepScheduler.from_config(model.scheduler.config)\n",
    "    model.enable_model_cpu_offload()\n",
    "    return model\n",
    "\n",
    "# Load models\n",
    "image_model = load_image_model()\n",
    "video_model = load_video_model()\n",
    "\n",
    "# Translate other language input to English\n",
    "def get_translation(text, dest_lang='en'):\n",
    "    translator = Translator()\n",
    "    translated_text = translator.translate(text, dest=dest_lang)\n",
    "    return translated_text.text\n",
    "\n",
    "# Returns generated image\n",
    "def image_generator(prompt):\n",
    "    with torch.no_grad():\n",
    "        image = image_model(prompt).images[0]\n",
    "    return image\n",
    "\n",
    "# Returns path to generated video\n",
    "def video_generator(prompt, length=5):\n",
    "    video_frames = video_model(\n",
    "        prompt=prompt,\n",
    "        num_frames=length*5,\n",
    "        num_inference_steps=10,\n",
    "        guidance_scale=6.5\n",
    "    ).frames\n",
    "    frame_rate = 5  # Frames per second (FPS) for the video\n",
    "    video_path = export_to_video(video_frames[0], fps=frame_rate)\n",
    "    return video_path\n",
    "\n",
    "# Main Page\n",
    "def main_page():\n",
    "    st.title(\"Media Generator\")\n",
    "\n",
    "    # Create two columns for layout\n",
    "    col1, col2 = st.columns(2)\n",
    "\n",
    "    with col1:\n",
    "        st.header(\"Input\")\n",
    "        text_input = get_translation(st.text_input(\"Enter some text:\", key=\"text_input\"),'en')\n",
    "        media_type = st.radio(\"Select media type:\", (\"Image\", \"Video\"))\n",
    "        if(media_type == 'Video'):\n",
    "          video_length = st.number_input(\"Enter the length of the video (seconds):\", min_value=1, step=1)\n",
    "\n",
    "        if st.button(\"Generate\"):\n",
    "            st.session_state[\"current_prompt\"] = text_input\n",
    "\n",
    "            # Clear previous generation results\n",
    "            if \"generated_image\" in st.session_state:\n",
    "                del st.session_state[\"generated_image\"]\n",
    "            if \"generated_video\" in st.session_state:\n",
    "                del st.session_state[\"generated_video\"]\n",
    "\n",
    "            # Generate new content based on the selected media type\n",
    "            if media_type == \"Image\":\n",
    "                st.session_state[\"generated_image\"] = image_generator(text_input)\n",
    "                st.session_state[\"generated_media_type\"] = \"Image\"\n",
    "            else:\n",
    "                st.session_state[\"generated_video\"] = video_generator(text_input, length=video_length)\n",
    "                st.session_state[\"generated_media_type\"] = \"Video\"\n",
    "\n",
    "            st.session_state[\"last_prompt\"] = text_input\n",
    "\n",
    "    with col2:\n",
    "        st.header(\"Output\")\n",
    "        if \"generated_media_type\" in st.session_state:\n",
    "            if st.session_state[\"generated_media_type\"] == \"Image\":\n",
    "                image = st.session_state[\"generated_image\"]\n",
    "                st.image(image, caption=\"Generated Image\")\n",
    "                st.download_button(\n",
    "                    label=\"Download Image\",\n",
    "                    data=image.tobytes(),  # Convert the image to bytes\n",
    "                    file_name=\"generated_image.png\",\n",
    "                    mime=\"image/png\"\n",
    "                )\n",
    "            else:\n",
    "                video_path = st.session_state[\"generated_video\"]\n",
    "\n",
    "                # converting mp4 to h264\n",
    "                input_file = video_path\n",
    "                output_file = '/content/output.mp4'\n",
    "\n",
    "                if(os.path.exists(output_file)):\n",
    "                    os.remove(output_file)\n",
    "\n",
    "                command = [\n",
    "                    'ffmpeg',\n",
    "                    '-i', input_file,\n",
    "                    '-c:v', 'libx264',\n",
    "                    '-crf', '23',\n",
    "                    '-preset', 'medium',\n",
    "                    output_file\n",
    "                ]\n",
    "\n",
    "                subprocess.run(command, check=True)\n",
    "\n",
    "                st.video(open(output_file, \"rb\").read())\n",
    "                st.download_button(\n",
    "                    label=\"Download Video\",\n",
    "                    data=open(output_file, \"rb\").read(),  # Read the video file\n",
    "                    file_name=\"generated_video.mp4\",\n",
    "                    mime=\"video/mp4\"\n",
    "                )\n",
    "\n",
    "if __name__ == \"__main__\":\n",
    "    main_page()"
   ]
  },
  {
   "cell_type": "code",
   "execution_count": null,
   "metadata": {
    "colab": {
     "base_uri": "https://localhost:8080/"
    },
    "id": "XVMm78VvzArW",
    "outputId": "38a302bd-d271-4ee0-d443-57fc1cad1acd"
   },
   "outputs": [
    {
     "name": "stdout",
     "output_type": "stream",
     "text": [
      "\n",
      "Collecting usage statistics. To deactivate, set browser.gatherUsageStats to false.\n",
      "\u001b[0m\n",
      "\u001b[0m\n",
      "\u001b[34m\u001b[1m  You can now view your Streamlit app in your browser.\u001b[0m\n",
      "\u001b[0m\n",
      "\u001b[34m  Local URL: \u001b[0m\u001b[1mhttp://localhost:8501\u001b[0m\n",
      "\u001b[34m  Network URL: \u001b[0m\u001b[1mhttp://172.28.0.12:8501\u001b[0m\n",
      "\u001b[34m  External URL: \u001b[0m\u001b[1mhttp://34.87.140.62:8501\u001b[0m\n",
      "\u001b[0m\n",
      "your url is: https://fruity-aliens-march.loca.lt\n",
      "2024-08-02 15:14:26.547491: E external/local_xla/xla/stream_executor/cuda/cuda_fft.cc:485] Unable to register cuFFT factory: Attempting to register factory for plugin cuFFT when one has already been registered\n",
      "2024-08-02 15:14:26.734483: E external/local_xla/xla/stream_executor/cuda/cuda_dnn.cc:8454] Unable to register cuDNN factory: Attempting to register factory for plugin cuDNN when one has already been registered\n",
      "2024-08-02 15:14:26.764213: E external/local_xla/xla/stream_executor/cuda/cuda_blas.cc:1452] Unable to register cuBLAS factory: Attempting to register factory for plugin cuBLAS when one has already been registered\n",
      "2024-08-02 15:14:28.401718: W tensorflow/compiler/tf2tensorrt/utils/py_utils.cc:38] TF-TRT Warning: Could not find TensorRT\n",
      "Loading pipeline components...: 100% 6/6 [00:14<00:00,  2.44s/it]\n",
      "Loading pipeline components...: 100% 5/5 [00:01<00:00,  3.02it/s]\n",
      "100% 50/50 [00:17<00:00,  2.89it/s]\n",
      "100% 50/50 [00:16<00:00,  2.96it/s]\n",
      "100% 10/10 [00:21<00:00,  2.11s/it]\n",
      "ffmpeg version 4.4.2-0ubuntu0.22.04.1 Copyright (c) 2000-2021 the FFmpeg developers\n",
      "  built with gcc 11 (Ubuntu 11.2.0-19ubuntu1)\n",
      "  configuration: --prefix=/usr --extra-version=0ubuntu0.22.04.1 --toolchain=hardened --libdir=/usr/lib/x86_64-linux-gnu --incdir=/usr/include/x86_64-linux-gnu --arch=amd64 --enable-gpl --disable-stripping --enable-gnutls --enable-ladspa --enable-libaom --enable-libass --enable-libbluray --enable-libbs2b --enable-libcaca --enable-libcdio --enable-libcodec2 --enable-libdav1d --enable-libflite --enable-libfontconfig --enable-libfreetype --enable-libfribidi --enable-libgme --enable-libgsm --enable-libjack --enable-libmp3lame --enable-libmysofa --enable-libopenjpeg --enable-libopenmpt --enable-libopus --enable-libpulse --enable-librabbitmq --enable-librubberband --enable-libshine --enable-libsnappy --enable-libsoxr --enable-libspeex --enable-libsrt --enable-libssh --enable-libtheora --enable-libtwolame --enable-libvidstab --enable-libvorbis --enable-libvpx --enable-libwebp --enable-libx265 --enable-libxml2 --enable-libxvid --enable-libzimg --enable-libzmq --enable-libzvbi --enable-lv2 --enable-omx --enable-openal --enable-opencl --enable-opengl --enable-sdl2 --enable-pocketsphinx --enable-librsvg --enable-libmfx --enable-libdc1394 --enable-libdrm --enable-libiec61883 --enable-chromaprint --enable-frei0r --enable-libx264 --enable-shared\n",
      "  libavutil      56. 70.100 / 56. 70.100\n",
      "  libavcodec     58.134.100 / 58.134.100\n",
      "  libavformat    58. 76.100 / 58. 76.100\n",
      "  libavdevice    58. 13.100 / 58. 13.100\n",
      "  libavfilter     7.110.100 /  7.110.100\n",
      "  libswscale      5.  9.100 /  5.  9.100\n",
      "  libswresample   3.  9.100 /  3.  9.100\n",
      "  libpostproc    55.  9.100 / 55.  9.100\n",
      "Input #0, mov,mp4,m4a,3gp,3g2,mj2, from '/tmp/tmp3ld874w6.mp4':\n",
      "  Metadata:\n",
      "    major_brand     : isom\n",
      "    minor_version   : 512\n",
      "    compatible_brands: isomiso2mp41\n",
      "    encoder         : Lavf59.27.100\n",
      "  Duration: 00:00:04.00, start: 0.000000, bitrate: 643 kb/s\n",
      "  Stream #0:0(und): Video: mpeg4 (Simple Profile) (mp4v / 0x7634706D), yuv420p, 256x256 [SAR 1:1 DAR 1:1], 641 kb/s, 5 fps, 5 tbr, 10240 tbn, 5 tbc (default)\n",
      "    Metadata:\n",
      "      handler_name    : VideoHandler\n",
      "      vendor_id       : [0][0][0][0]\n",
      "Stream mapping:\n",
      "  Stream #0:0 -> #0:0 (mpeg4 (native) -> h264 (libx264))\n",
      "Press [q] to stop, [?] for help\n",
      "\u001b[1;36m[libx264 @ 0x568356e574c0] \u001b[0musing SAR=1/1\n",
      "\u001b[1;36m[libx264 @ 0x568356e574c0] \u001b[0musing cpu capabilities: MMX2 SSE2Fast SSSE3 SSE4.2 AVX FMA3 BMI2 AVX2 AVX512\n",
      "\u001b[1;36m[libx264 @ 0x568356e574c0] \u001b[0mprofile High, level 1.2, 4:2:0, 8-bit\n",
      "\u001b[1;36m[libx264 @ 0x568356e574c0] \u001b[0m264 - core 163 r3060 5db6aa6 - H.264/MPEG-4 AVC codec - Copyleft 2003-2021 - http://www.videolan.org/x264.html - options: cabac=1 ref=3 deblock=1:0:0 analyse=0x3:0x113 me=hex subme=7 psy=1 psy_rd=1.00:0.00 mixed_ref=1 me_range=16 chroma_me=1 trellis=1 8x8dct=1 cqm=0 deadzone=21,11 fast_pskip=1 chroma_qp_offset=-2 threads=3 lookahead_threads=1 sliced_threads=0 nr=0 decimate=1 interlaced=0 bluray_compat=0 constrained_intra=0 bframes=3 b_pyramid=2 b_adapt=1 b_bias=0 direct=1 weightb=1 open_gop=0 weightp=2 keyint=250 keyint_min=5 scenecut=40 intra_refresh=0 rc_lookahead=40 rc=crf mbtree=1 crf=23.0 qcomp=0.60 qpmin=0 qpmax=69 qpstep=4 ip_ratio=1.40 aq=1:1.00\n",
      "Output #0, mp4, to '/content/output.mp4':\n",
      "  Metadata:\n",
      "    major_brand     : isom\n",
      "    minor_version   : 512\n",
      "    compatible_brands: isomiso2mp41\n",
      "    encoder         : Lavf58.76.100\n",
      "  Stream #0:0(und): Video: h264 (avc1 / 0x31637661), yuv420p(progressive), 256x256 [SAR 1:1 DAR 1:1], q=2-31, 5 fps, 10240 tbn (default)\n",
      "    Metadata:\n",
      "      handler_name    : VideoHandler\n",
      "      vendor_id       : [0][0][0][0]\n",
      "      encoder         : Lavc58.134.100 libx264\n",
      "    Side data:\n",
      "      cpb: bitrate max/min/avg: 0/0/0 buffer size: 0 vbv_delay: N/A\n",
      "frame=   20 fps=0.0 q=-1.0 Lsize=     254kB time=00:00:03.40 bitrate= 612.9kbits/s speed=12.7x    \n",
      "video:253kB audio:0kB subtitle:0kB other streams:0kB global headers:0kB muxing overhead: 0.425599%\n",
      "\u001b[1;36m[libx264 @ 0x568356e574c0] \u001b[0mframe I:2     Avg QP:20.54  size: 14465\n",
      "\u001b[1;36m[libx264 @ 0x568356e574c0] \u001b[0mframe P:5     Avg QP:22.60  size: 13608\n",
      "\u001b[1;36m[libx264 @ 0x568356e574c0] \u001b[0mframe B:13    Avg QP:22.76  size: 12441\n",
      "\u001b[1;36m[libx264 @ 0x568356e574c0] \u001b[0mconsecutive B-frames: 10.0%  0.0% 30.0% 60.0%\n",
      "\u001b[1;36m[libx264 @ 0x568356e574c0] \u001b[0mmb I  I16..4:  0.4% 86.9% 12.7%\n",
      "\u001b[1;36m[libx264 @ 0x568356e574c0] \u001b[0mmb P  I16..4:  0.3% 85.5%  9.3%  P16..4:  2.5%  1.8%  0.5%  0.0%  0.0%    skip: 0.0%\n",
      "\u001b[1;36m[libx264 @ 0x568356e574c0] \u001b[0mmb B  I16..4:  0.1% 30.0% 14.2%  B16..8: 23.0% 17.9%  9.8%  direct: 5.0%  skip: 0.0%  L0:33.8% L1:18.2% BI:48.0%\n",
      "\u001b[1;36m[libx264 @ 0x568356e574c0] \u001b[0m8x8 transform intra:79.2% inter:87.1%\n",
      "\u001b[1;36m[libx264 @ 0x568356e574c0] \u001b[0mcoded y,uvDC,uvAC intra: 98.5% 31.9% 1.3% inter: 93.8% 18.8% 0.1%\n",
      "\u001b[1;36m[libx264 @ 0x568356e574c0] \u001b[0mi16 v,h,dc,p: 10% 10% 70% 10%\n",
      "\u001b[1;36m[libx264 @ 0x568356e574c0] \u001b[0mi8 v,h,dc,ddl,ddr,vr,hd,vl,hu:  4% 21% 30%  3%  8%  3% 19%  3% 10%\n",
      "\u001b[1;36m[libx264 @ 0x568356e574c0] \u001b[0mi4 v,h,dc,ddl,ddr,vr,hd,vl,hu:  3% 17% 14%  5% 12%  6% 26%  4% 13%\n",
      "\u001b[1;36m[libx264 @ 0x568356e574c0] \u001b[0mi8c dc,h,v,p: 63% 19% 17%  1%\n",
      "\u001b[1;36m[libx264 @ 0x568356e574c0] \u001b[0mWeighted P-Frames: Y:0.0% UV:0.0%\n",
      "\u001b[1;36m[libx264 @ 0x568356e574c0] \u001b[0mref P L0: 64.9% 13.3%  6.5% 15.3%\n",
      "\u001b[1;36m[libx264 @ 0x568356e574c0] \u001b[0mref B L0: 93.7%  5.3%  1.0%\n",
      "\u001b[1;36m[libx264 @ 0x568356e574c0] \u001b[0mref B L1: 96.5%  3.5%\n",
      "\u001b[1;36m[libx264 @ 0x568356e574c0] \u001b[0mkb/s:517.42\n",
      "ffmpeg version 4.4.2-0ubuntu0.22.04.1 Copyright (c) 2000-2021 the FFmpeg developers\n",
      "  built with gcc 11 (Ubuntu 11.2.0-19ubuntu1)\n",
      "  configuration: --prefix=/usr --extra-version=0ubuntu0.22.04.1 --toolchain=hardened --libdir=/usr/lib/x86_64-linux-gnu --incdir=/usr/include/x86_64-linux-gnu --arch=amd64 --enable-gpl --disable-stripping --enable-gnutls --enable-ladspa --enable-libaom --enable-libass --enable-libbluray --enable-libbs2b --enable-libcaca --enable-libcdio --enable-libcodec2 --enable-libdav1d --enable-libflite --enable-libfontconfig --enable-libfreetype --enable-libfribidi --enable-libgme --enable-libgsm --enable-libjack --enable-libmp3lame --enable-libmysofa --enable-libopenjpeg --enable-libopenmpt --enable-libopus --enable-libpulse --enable-librabbitmq --enable-librubberband --enable-libshine --enable-libsnappy --enable-libsoxr --enable-libspeex --enable-libsrt --enable-libssh --enable-libtheora --enable-libtwolame --enable-libvidstab --enable-libvorbis --enable-libvpx --enable-libwebp --enable-libx265 --enable-libxml2 --enable-libxvid --enable-libzimg --enable-libzmq --enable-libzvbi --enable-lv2 --enable-omx --enable-openal --enable-opencl --enable-opengl --enable-sdl2 --enable-pocketsphinx --enable-librsvg --enable-libmfx --enable-libdc1394 --enable-libdrm --enable-libiec61883 --enable-chromaprint --enable-frei0r --enable-libx264 --enable-shared\n",
      "  libavutil      56. 70.100 / 56. 70.100\n",
      "  libavcodec     58.134.100 / 58.134.100\n",
      "  libavformat    58. 76.100 / 58. 76.100\n",
      "  libavdevice    58. 13.100 / 58. 13.100\n",
      "  libavfilter     7.110.100 /  7.110.100\n",
      "  libswscale      5.  9.100 /  5.  9.100\n",
      "  libswresample   3.  9.100 /  3.  9.100\n",
      "  libpostproc    55.  9.100 / 55.  9.100\n",
      "Input #0, mov,mp4,m4a,3gp,3g2,mj2, from '/tmp/tmp3ld874w6.mp4':\n",
      "  Metadata:\n",
      "    major_brand     : isom\n",
      "    minor_version   : 512\n",
      "    compatible_brands: isomiso2mp41\n",
      "    encoder         : Lavf59.27.100\n",
      "  Duration: 00:00:04.00, start: 0.000000, bitrate: 643 kb/s\n",
      "  Stream #0:0(und): Video: mpeg4 (Simple Profile) (mp4v / 0x7634706D), yuv420p, 256x256 [SAR 1:1 DAR 1:1], 641 kb/s, 5 fps, 5 tbr, 10240 tbn, 5 tbc (default)\n",
      "    Metadata:\n",
      "      handler_name    : VideoHandler\n",
      "      vendor_id       : [0][0][0][0]\n",
      "Stream mapping:\n",
      "  Stream #0:0 -> #0:0 (mpeg4 (native) -> h264 (libx264))\n",
      "Press [q] to stop, [?] for help\n",
      "\u001b[1;36m[libx264 @ 0x5d20dca034c0] \u001b[0musing SAR=1/1\n",
      "\u001b[1;36m[libx264 @ 0x5d20dca034c0] \u001b[0musing cpu capabilities: MMX2 SSE2Fast SSSE3 SSE4.2 AVX FMA3 BMI2 AVX2 AVX512\n",
      "\u001b[1;36m[libx264 @ 0x5d20dca034c0] \u001b[0mprofile High, level 1.2, 4:2:0, 8-bit\n",
      "\u001b[1;36m[libx264 @ 0x5d20dca034c0] \u001b[0m264 - core 163 r3060 5db6aa6 - H.264/MPEG-4 AVC codec - Copyleft 2003-2021 - http://www.videolan.org/x264.html - options: cabac=1 ref=3 deblock=1:0:0 analyse=0x3:0x113 me=hex subme=7 psy=1 psy_rd=1.00:0.00 mixed_ref=1 me_range=16 chroma_me=1 trellis=1 8x8dct=1 cqm=0 deadzone=21,11 fast_pskip=1 chroma_qp_offset=-2 threads=3 lookahead_threads=1 sliced_threads=0 nr=0 decimate=1 interlaced=0 bluray_compat=0 constrained_intra=0 bframes=3 b_pyramid=2 b_adapt=1 b_bias=0 direct=1 weightb=1 open_gop=0 weightp=2 keyint=250 keyint_min=5 scenecut=40 intra_refresh=0 rc_lookahead=40 rc=crf mbtree=1 crf=23.0 qcomp=0.60 qpmin=0 qpmax=69 qpstep=4 ip_ratio=1.40 aq=1:1.00\n",
      "Output #0, mp4, to '/content/output.mp4':\n",
      "  Metadata:\n",
      "    major_brand     : isom\n",
      "    minor_version   : 512\n",
      "    compatible_brands: isomiso2mp41\n",
      "    encoder         : Lavf58.76.100\n",
      "  Stream #0:0(und): Video: h264 (avc1 / 0x31637661), yuv420p(progressive), 256x256 [SAR 1:1 DAR 1:1], q=2-31, 5 fps, 10240 tbn (default)\n",
      "    Metadata:\n",
      "      handler_name    : VideoHandler\n",
      "      vendor_id       : [0][0][0][0]\n",
      "      encoder         : Lavc58.134.100 libx264\n",
      "    Side data:\n",
      "      cpb: bitrate max/min/avg: 0/0/0 buffer size: 0 vbv_delay: N/A\n",
      "frame=   20 fps=0.0 q=-1.0 Lsize=     254kB time=00:00:03.40 bitrate= 612.9kbits/s speed=   7x    \n",
      "video:253kB audio:0kB subtitle:0kB other streams:0kB global headers:0kB muxing overhead: 0.425599%\n",
      "\u001b[1;36m[libx264 @ 0x5d20dca034c0] \u001b[0mframe I:2     Avg QP:20.54  size: 14465\n",
      "\u001b[1;36m[libx264 @ 0x5d20dca034c0] \u001b[0mframe P:5     Avg QP:22.60  size: 13608\n",
      "\u001b[1;36m[libx264 @ 0x5d20dca034c0] \u001b[0mframe B:13    Avg QP:22.76  size: 12441\n",
      "\u001b[1;36m[libx264 @ 0x5d20dca034c0] \u001b[0mconsecutive B-frames: 10.0%  0.0% 30.0% 60.0%\n",
      "\u001b[1;36m[libx264 @ 0x5d20dca034c0] \u001b[0mmb I  I16..4:  0.4% 86.9% 12.7%\n",
      "\u001b[1;36m[libx264 @ 0x5d20dca034c0] \u001b[0mmb P  I16..4:  0.3% 85.5%  9.3%  P16..4:  2.5%  1.8%  0.5%  0.0%  0.0%    skip: 0.0%\n",
      "\u001b[1;36m[libx264 @ 0x5d20dca034c0] \u001b[0mmb B  I16..4:  0.1% 30.0% 14.2%  B16..8: 23.0% 17.9%  9.8%  direct: 5.0%  skip: 0.0%  L0:33.8% L1:18.2% BI:48.0%\n",
      "\u001b[1;36m[libx264 @ 0x5d20dca034c0] \u001b[0m8x8 transform intra:79.2% inter:87.1%\n",
      "\u001b[1;36m[libx264 @ 0x5d20dca034c0] \u001b[0mcoded y,uvDC,uvAC intra: 98.5% 31.9% 1.3% inter: 93.8% 18.8% 0.1%\n",
      "\u001b[1;36m[libx264 @ 0x5d20dca034c0] \u001b[0mi16 v,h,dc,p: 10% 10% 70% 10%\n",
      "\u001b[1;36m[libx264 @ 0x5d20dca034c0] \u001b[0mi8 v,h,dc,ddl,ddr,vr,hd,vl,hu:  4% 21% 30%  3%  8%  3% 19%  3% 10%\n",
      "\u001b[1;36m[libx264 @ 0x5d20dca034c0] \u001b[0mi4 v,h,dc,ddl,ddr,vr,hd,vl,hu:  3% 17% 14%  5% 12%  6% 26%  4% 13%\n",
      "\u001b[1;36m[libx264 @ 0x5d20dca034c0] \u001b[0mi8c dc,h,v,p: 63% 19% 17%  1%\n",
      "\u001b[1;36m[libx264 @ 0x5d20dca034c0] \u001b[0mWeighted P-Frames: Y:0.0% UV:0.0%\n",
      "\u001b[1;36m[libx264 @ 0x5d20dca034c0] \u001b[0mref P L0: 64.9% 13.3%  6.5% 15.3%\n",
      "\u001b[1;36m[libx264 @ 0x5d20dca034c0] \u001b[0mref B L0: 93.7%  5.3%  1.0%\n",
      "\u001b[1;36m[libx264 @ 0x5d20dca034c0] \u001b[0mref B L1: 96.5%  3.5%\n",
      "\u001b[1;36m[libx264 @ 0x5d20dca034c0] \u001b[0mkb/s:517.42\n",
      "100% 10/10 [00:11<00:00,  1.11s/it]\n",
      "ffmpeg version 4.4.2-0ubuntu0.22.04.1 Copyright (c) 2000-2021 the FFmpeg developers\n",
      "  built with gcc 11 (Ubuntu 11.2.0-19ubuntu1)\n",
      "  configuration: --prefix=/usr --extra-version=0ubuntu0.22.04.1 --toolchain=hardened --libdir=/usr/lib/x86_64-linux-gnu --incdir=/usr/include/x86_64-linux-gnu --arch=amd64 --enable-gpl --disable-stripping --enable-gnutls --enable-ladspa --enable-libaom --enable-libass --enable-libbluray --enable-libbs2b --enable-libcaca --enable-libcdio --enable-libcodec2 --enable-libdav1d --enable-libflite --enable-libfontconfig --enable-libfreetype --enable-libfribidi --enable-libgme --enable-libgsm --enable-libjack --enable-libmp3lame --enable-libmysofa --enable-libopenjpeg --enable-libopenmpt --enable-libopus --enable-libpulse --enable-librabbitmq --enable-librubberband --enable-libshine --enable-libsnappy --enable-libsoxr --enable-libspeex --enable-libsrt --enable-libssh --enable-libtheora --enable-libtwolame --enable-libvidstab --enable-libvorbis --enable-libvpx --enable-libwebp --enable-libx265 --enable-libxml2 --enable-libxvid --enable-libzimg --enable-libzmq --enable-libzvbi --enable-lv2 --enable-omx --enable-openal --enable-opencl --enable-opengl --enable-sdl2 --enable-pocketsphinx --enable-librsvg --enable-libmfx --enable-libdc1394 --enable-libdrm --enable-libiec61883 --enable-chromaprint --enable-frei0r --enable-libx264 --enable-shared\n",
      "  libavutil      56. 70.100 / 56. 70.100\n",
      "  libavcodec     58.134.100 / 58.134.100\n",
      "  libavformat    58. 76.100 / 58. 76.100\n",
      "  libavdevice    58. 13.100 / 58. 13.100\n",
      "  libavfilter     7.110.100 /  7.110.100\n",
      "  libswscale      5.  9.100 /  5.  9.100\n",
      "  libswresample   3.  9.100 /  3.  9.100\n",
      "  libpostproc    55.  9.100 / 55.  9.100\n",
      "Input #0, mov,mp4,m4a,3gp,3g2,mj2, from '/tmp/tmp0nix2_xj.mp4':\n",
      "  Metadata:\n",
      "    major_brand     : isom\n",
      "    minor_version   : 512\n",
      "    compatible_brands: isomiso2mp41\n",
      "    encoder         : Lavf59.27.100\n",
      "  Duration: 00:00:04.00, start: 0.000000, bitrate: 421 kb/s\n",
      "  Stream #0:0(und): Video: mpeg4 (Simple Profile) (mp4v / 0x7634706D), yuv420p, 256x256 [SAR 1:1 DAR 1:1], 419 kb/s, 5 fps, 5 tbr, 10240 tbn, 5 tbc (default)\n",
      "    Metadata:\n",
      "      handler_name    : VideoHandler\n",
      "      vendor_id       : [0][0][0][0]\n",
      "Stream mapping:\n",
      "  Stream #0:0 -> #0:0 (mpeg4 (native) -> h264 (libx264))\n",
      "Press [q] to stop, [?] for help\n",
      "\u001b[1;36m[libx264 @ 0x5c4bb2889c80] \u001b[0musing SAR=1/1\n",
      "\u001b[1;36m[libx264 @ 0x5c4bb2889c80] \u001b[0musing cpu capabilities: MMX2 SSE2Fast SSSE3 SSE4.2 AVX FMA3 BMI2 AVX2 AVX512\n",
      "\u001b[1;36m[libx264 @ 0x5c4bb2889c80] \u001b[0mprofile High, level 1.2, 4:2:0, 8-bit\n",
      "\u001b[1;36m[libx264 @ 0x5c4bb2889c80] \u001b[0m264 - core 163 r3060 5db6aa6 - H.264/MPEG-4 AVC codec - Copyleft 2003-2021 - http://www.videolan.org/x264.html - options: cabac=1 ref=3 deblock=1:0:0 analyse=0x3:0x113 me=hex subme=7 psy=1 psy_rd=1.00:0.00 mixed_ref=1 me_range=16 chroma_me=1 trellis=1 8x8dct=1 cqm=0 deadzone=21,11 fast_pskip=1 chroma_qp_offset=-2 threads=3 lookahead_threads=1 sliced_threads=0 nr=0 decimate=1 interlaced=0 bluray_compat=0 constrained_intra=0 bframes=3 b_pyramid=2 b_adapt=1 b_bias=0 direct=1 weightb=1 open_gop=0 weightp=2 keyint=250 keyint_min=5 scenecut=40 intra_refresh=0 rc_lookahead=40 rc=crf mbtree=1 crf=23.0 qcomp=0.60 qpmin=0 qpmax=69 qpstep=4 ip_ratio=1.40 aq=1:1.00\n",
      "Output #0, mp4, to '/content/output.mp4':\n",
      "  Metadata:\n",
      "    major_brand     : isom\n",
      "    minor_version   : 512\n",
      "    compatible_brands: isomiso2mp41\n",
      "    encoder         : Lavf58.76.100\n",
      "  Stream #0:0(und): Video: h264 (avc1 / 0x31637661), yuv420p(progressive), 256x256 [SAR 1:1 DAR 1:1], q=2-31, 5 fps, 10240 tbn (default)\n",
      "    Metadata:\n",
      "      handler_name    : VideoHandler\n",
      "      vendor_id       : [0][0][0][0]\n",
      "      encoder         : Lavc58.134.100 libx264\n",
      "    Side data:\n",
      "      cpb: bitrate max/min/avg: 0/0/0 buffer size: 0 vbv_delay: N/A\n",
      "frame=   20 fps=0.0 q=-1.0 Lsize=     179kB time=00:00:03.40 bitrate= 430.5kbits/s speed=12.3x    \n",
      "video:178kB audio:0kB subtitle:0kB other streams:0kB global headers:0kB muxing overhead: 0.558361%\n",
      "\u001b[1;36m[libx264 @ 0x5c4bb2889c80] \u001b[0mframe I:4     Avg QP:19.70  size:  9644\n",
      "\u001b[1;36m[libx264 @ 0x5c4bb2889c80] \u001b[0mframe P:13    Avg QP:21.81  size:  9158\n",
      "\u001b[1;36m[libx264 @ 0x5c4bb2889c80] \u001b[0mframe B:3     Avg QP:21.73  size:  7880\n",
      "\u001b[1;36m[libx264 @ 0x5c4bb2889c80] \u001b[0mconsecutive B-frames: 75.0% 10.0% 15.0%  0.0%\n",
      "\u001b[1;36m[libx264 @ 0x5c4bb2889c80] \u001b[0mmb I  I16..4:  0.0% 96.8%  3.2%\n",
      "\u001b[1;36m[libx264 @ 0x5c4bb2889c80] \u001b[0mmb P  I16..4:  0.0% 75.4%  2.7%  P16..4:  9.2%  8.9%  3.8%  0.0%  0.0%    skip: 0.0%\n",
      "\u001b[1;36m[libx264 @ 0x5c4bb2889c80] \u001b[0mmb B  I16..4:  0.0% 47.5%  1.7%  B16..8: 21.2% 20.3%  6.1%  direct: 3.1%  skip: 0.0%  L0:54.5% L1:18.5% BI:27.0%\n",
      "\u001b[1;36m[libx264 @ 0x5c4bb2889c80] \u001b[0m8x8 transform intra:96.6% inter:95.4%\n",
      "\u001b[1;36m[libx264 @ 0x5c4bb2889c80] \u001b[0mcoded y,uvDC,uvAC intra: 99.9% 89.5% 22.5% inter: 98.8% 82.1% 20.1%\n",
      "\u001b[1;36m[libx264 @ 0x5c4bb2889c80] \u001b[0mi8 v,h,dc,ddl,ddr,vr,hd,vl,hu:  5% 14% 39%  3%  7%  3% 20%  3%  6%\n",
      "\u001b[1;36m[libx264 @ 0x5c4bb2889c80] \u001b[0mi4 v,h,dc,ddl,ddr,vr,hd,vl,hu: 12% 11%  9%  8% 14% 12% 17%  9%  8%\n",
      "\u001b[1;36m[libx264 @ 0x5c4bb2889c80] \u001b[0mi8c dc,h,v,p: 47% 31% 17%  6%\n",
      "\u001b[1;36m[libx264 @ 0x5c4bb2889c80] \u001b[0mWeighted P-Frames: Y:23.1% UV:15.4%\n",
      "\u001b[1;36m[libx264 @ 0x5c4bb2889c80] \u001b[0mref P L0: 63.5% 21.0%  8.4%  6.0%  1.1%\n",
      "\u001b[1;36m[libx264 @ 0x5c4bb2889c80] \u001b[0mref B L0: 81.2% 13.2%  5.6%\n",
      "\u001b[1;36m[libx264 @ 0x5c4bb2889c80] \u001b[0mkb/s:362.55\n",
      "100% 10/10 [00:10<00:00,  1.09s/it]\n",
      "ffmpeg version 4.4.2-0ubuntu0.22.04.1 Copyright (c) 2000-2021 the FFmpeg developers\n",
      "  built with gcc 11 (Ubuntu 11.2.0-19ubuntu1)\n",
      "  configuration: --prefix=/usr --extra-version=0ubuntu0.22.04.1 --toolchain=hardened --libdir=/usr/lib/x86_64-linux-gnu --incdir=/usr/include/x86_64-linux-gnu --arch=amd64 --enable-gpl --disable-stripping --enable-gnutls --enable-ladspa --enable-libaom --enable-libass --enable-libbluray --enable-libbs2b --enable-libcaca --enable-libcdio --enable-libcodec2 --enable-libdav1d --enable-libflite --enable-libfontconfig --enable-libfreetype --enable-libfribidi --enable-libgme --enable-libgsm --enable-libjack --enable-libmp3lame --enable-libmysofa --enable-libopenjpeg --enable-libopenmpt --enable-libopus --enable-libpulse --enable-librabbitmq --enable-librubberband --enable-libshine --enable-libsnappy --enable-libsoxr --enable-libspeex --enable-libsrt --enable-libssh --enable-libtheora --enable-libtwolame --enable-libvidstab --enable-libvorbis --enable-libvpx --enable-libwebp --enable-libx265 --enable-libxml2 --enable-libxvid --enable-libzimg --enable-libzmq --enable-libzvbi --enable-lv2 --enable-omx --enable-openal --enable-opencl --enable-opengl --enable-sdl2 --enable-pocketsphinx --enable-librsvg --enable-libmfx --enable-libdc1394 --enable-libdrm --enable-libiec61883 --enable-chromaprint --enable-frei0r --enable-libx264 --enable-shared\n",
      "  libavutil      56. 70.100 / 56. 70.100\n",
      "  libavcodec     58.134.100 / 58.134.100\n",
      "  libavformat    58. 76.100 / 58. 76.100\n",
      "  libavdevice    58. 13.100 / 58. 13.100\n",
      "  libavfilter     7.110.100 /  7.110.100\n",
      "  libswscale      5.  9.100 /  5.  9.100\n",
      "  libswresample   3.  9.100 /  3.  9.100\n",
      "  libpostproc    55.  9.100 / 55.  9.100\n",
      "Input #0, mov,mp4,m4a,3gp,3g2,mj2, from '/tmp/tmp2ldge0mi.mp4':\n",
      "  Metadata:\n",
      "    major_brand     : isom\n",
      "    minor_version   : 512\n",
      "    compatible_brands: isomiso2mp41\n",
      "    encoder         : Lavf59.27.100\n",
      "  Duration: 00:00:04.00, start: 0.000000, bitrate: 487 kb/s\n",
      "  Stream #0:0(und): Video: mpeg4 (Simple Profile) (mp4v / 0x7634706D), yuv420p, 256x256 [SAR 1:1 DAR 1:1], 485 kb/s, 5 fps, 5 tbr, 10240 tbn, 5 tbc (default)\n",
      "    Metadata:\n",
      "      handler_name    : VideoHandler\n",
      "      vendor_id       : [0][0][0][0]\n",
      "Stream mapping:\n",
      "  Stream #0:0 -> #0:0 (mpeg4 (native) -> h264 (libx264))\n",
      "Press [q] to stop, [?] for help\n",
      "\u001b[1;36m[libx264 @ 0x5639cdc9c480] \u001b[0musing SAR=1/1\n",
      "\u001b[1;36m[libx264 @ 0x5639cdc9c480] \u001b[0musing cpu capabilities: MMX2 SSE2Fast SSSE3 SSE4.2 AVX FMA3 BMI2 AVX2 AVX512\n",
      "\u001b[1;36m[libx264 @ 0x5639cdc9c480] \u001b[0mprofile High, level 1.2, 4:2:0, 8-bit\n",
      "\u001b[1;36m[libx264 @ 0x5639cdc9c480] \u001b[0m264 - core 163 r3060 5db6aa6 - H.264/MPEG-4 AVC codec - Copyleft 2003-2021 - http://www.videolan.org/x264.html - options: cabac=1 ref=3 deblock=1:0:0 analyse=0x3:0x113 me=hex subme=7 psy=1 psy_rd=1.00:0.00 mixed_ref=1 me_range=16 chroma_me=1 trellis=1 8x8dct=1 cqm=0 deadzone=21,11 fast_pskip=1 chroma_qp_offset=-2 threads=3 lookahead_threads=1 sliced_threads=0 nr=0 decimate=1 interlaced=0 bluray_compat=0 constrained_intra=0 bframes=3 b_pyramid=2 b_adapt=1 b_bias=0 direct=1 weightb=1 open_gop=0 weightp=2 keyint=250 keyint_min=5 scenecut=40 intra_refresh=0 rc_lookahead=40 rc=crf mbtree=1 crf=23.0 qcomp=0.60 qpmin=0 qpmax=69 qpstep=4 ip_ratio=1.40 aq=1:1.00\n",
      "Output #0, mp4, to '/content/output.mp4':\n",
      "  Metadata:\n",
      "    major_brand     : isom\n",
      "    minor_version   : 512\n",
      "    compatible_brands: isomiso2mp41\n",
      "    encoder         : Lavf58.76.100\n",
      "  Stream #0:0(und): Video: h264 (avc1 / 0x31637661), yuv420p(progressive), 256x256 [SAR 1:1 DAR 1:1], q=2-31, 5 fps, 10240 tbn (default)\n",
      "    Metadata:\n",
      "      handler_name    : VideoHandler\n",
      "      vendor_id       : [0][0][0][0]\n",
      "      encoder         : Lavc58.134.100 libx264\n",
      "    Side data:\n",
      "      cpb: bitrate max/min/avg: 0/0/0 buffer size: 0 vbv_delay: N/A\n",
      "frame=   20 fps=0.0 q=-1.0 Lsize=     188kB time=00:00:03.40 bitrate= 453.7kbits/s speed=9.28x    \n",
      "video:187kB audio:0kB subtitle:0kB other streams:0kB global headers:0kB muxing overhead: 0.538058%\n",
      "\u001b[1;36m[libx264 @ 0x5639cdc9c480] \u001b[0mframe I:2     Avg QP:20.98  size: 12218\n",
      "\u001b[1;36m[libx264 @ 0x5639cdc9c480] \u001b[0mframe P:13    Avg QP:22.46  size:  9072\n",
      "\u001b[1;36m[libx264 @ 0x5639cdc9c480] \u001b[0mframe B:5     Avg QP:22.47  size:  9748\n",
      "\u001b[1;36m[libx264 @ 0x5639cdc9c480] \u001b[0mconsecutive B-frames: 65.0%  0.0% 15.0% 20.0%\n",
      "\u001b[1;36m[libx264 @ 0x5639cdc9c480] \u001b[0mmb I  I16..4:  0.0% 95.1%  4.9%\n",
      "\u001b[1;36m[libx264 @ 0x5639cdc9c480] \u001b[0mmb P  I16..4:  0.0% 81.5%  5.0%  P16..4:  6.9%  4.2%  2.3%  0.0%  0.0%    skip: 0.0%\n",
      "\u001b[1;36m[libx264 @ 0x5639cdc9c480] \u001b[0mmb B  I16..4:  0.0% 45.0%  3.5%  B16..8: 21.7% 18.0%  8.4%  direct: 3.4%  skip: 0.0%  L0:35.4% L1:23.3% BI:41.3%\n",
      "\u001b[1;36m[libx264 @ 0x5639cdc9c480] \u001b[0m8x8 transform intra:94.1% inter:94.2%\n",
      "\u001b[1;36m[libx264 @ 0x5639cdc9c480] \u001b[0mcoded y,uvDC,uvAC intra: 99.7% 41.1% 17.2% inter: 99.1% 40.7% 20.6%\n",
      "\u001b[1;36m[libx264 @ 0x5639cdc9c480] \u001b[0mi8 v,h,dc,ddl,ddr,vr,hd,vl,hu: 10%  6% 30%  7% 12%  9% 13%  7%  5%\n",
      "\u001b[1;36m[libx264 @ 0x5639cdc9c480] \u001b[0mi4 v,h,dc,ddl,ddr,vr,hd,vl,hu:  7%  7% 11%  8% 24%  9% 22%  7%  6%\n",
      "\u001b[1;36m[libx264 @ 0x5639cdc9c480] \u001b[0mi8c dc,h,v,p: 58% 20% 20%  2%\n",
      "\u001b[1;36m[libx264 @ 0x5639cdc9c480] \u001b[0mWeighted P-Frames: Y:38.5% UV:38.5%\n",
      "\u001b[1;36m[libx264 @ 0x5639cdc9c480] \u001b[0mref P L0: 51.7% 27.0% 14.6%  6.1%  0.6%\n",
      "\u001b[1;36m[libx264 @ 0x5639cdc9c480] \u001b[0mref B L0: 97.1%  2.9%\n",
      "\u001b[1;36m[libx264 @ 0x5639cdc9c480] \u001b[0mref B L1: 96.6%  3.4%\n",
      "\u001b[1;36m[libx264 @ 0x5639cdc9c480] \u001b[0mkb/s:382.23\n",
      "ffmpeg version 4.4.2-0ubuntu0.22.04.1 Copyright (c) 2000-2021 the FFmpeg developers\n",
      "  built with gcc 11 (Ubuntu 11.2.0-19ubuntu1)\n",
      "  configuration: --prefix=/usr --extra-version=0ubuntu0.22.04.1 --toolchain=hardened --libdir=/usr/lib/x86_64-linux-gnu --incdir=/usr/include/x86_64-linux-gnu --arch=amd64 --enable-gpl --disable-stripping --enable-gnutls --enable-ladspa --enable-libaom --enable-libass --enable-libbluray --enable-libbs2b --enable-libcaca --enable-libcdio --enable-libcodec2 --enable-libdav1d --enable-libflite --enable-libfontconfig --enable-libfreetype --enable-libfribidi --enable-libgme --enable-libgsm --enable-libjack --enable-libmp3lame --enable-libmysofa --enable-libopenjpeg --enable-libopenmpt --enable-libopus --enable-libpulse --enable-librabbitmq --enable-librubberband --enable-libshine --enable-libsnappy --enable-libsoxr --enable-libspeex --enable-libsrt --enable-libssh --enable-libtheora --enable-libtwolame --enable-libvidstab --enable-libvorbis --enable-libvpx --enable-libwebp --enable-libx265 --enable-libxml2 --enable-libxvid --enable-libzimg --enable-libzmq --enable-libzvbi --enable-lv2 --enable-omx --enable-openal --enable-opencl --enable-opengl --enable-sdl2 --enable-pocketsphinx --enable-librsvg --enable-libmfx --enable-libdc1394 --enable-libdrm --enable-libiec61883 --enable-chromaprint --enable-frei0r --enable-libx264 --enable-shared\n",
      "  libavutil      56. 70.100 / 56. 70.100\n",
      "  libavcodec     58.134.100 / 58.134.100\n",
      "  libavformat    58. 76.100 / 58. 76.100\n",
      "  libavdevice    58. 13.100 / 58. 13.100\n",
      "  libavfilter     7.110.100 /  7.110.100\n",
      "  libswscale      5.  9.100 /  5.  9.100\n",
      "  libswresample   3.  9.100 /  3.  9.100\n",
      "  libpostproc    55.  9.100 / 55.  9.100\n",
      "Input #0, mov,mp4,m4a,3gp,3g2,mj2, from '/tmp/tmp2ldge0mi.mp4':\n",
      "  Metadata:\n",
      "    major_brand     : isom\n",
      "    minor_version   : 512\n",
      "    compatible_brands: isomiso2mp41\n",
      "    encoder         : Lavf59.27.100\n",
      "  Duration: 00:00:04.00, start: 0.000000, bitrate: 487 kb/s\n",
      "  Stream #0:0(und): Video: mpeg4 (Simple Profile) (mp4v / 0x7634706D), yuv420p, 256x256 [SAR 1:1 DAR 1:1], 485 kb/s, 5 fps, 5 tbr, 10240 tbn, 5 tbc (default)\n",
      "    Metadata:\n",
      "      handler_name    : VideoHandler\n",
      "      vendor_id       : [0][0][0][0]\n",
      "Stream mapping:\n",
      "  Stream #0:0 -> #0:0 (mpeg4 (native) -> h264 (libx264))\n",
      "Press [q] to stop, [?] for help\n",
      "\u001b[1;36m[libx264 @ 0x5a9767888480] \u001b[0musing SAR=1/1\n",
      "\u001b[1;36m[libx264 @ 0x5a9767888480] \u001b[0musing cpu capabilities: MMX2 SSE2Fast SSSE3 SSE4.2 AVX FMA3 BMI2 AVX2 AVX512\n",
      "\u001b[1;36m[libx264 @ 0x5a9767888480] \u001b[0mprofile High, level 1.2, 4:2:0, 8-bit\n",
      "\u001b[1;36m[libx264 @ 0x5a9767888480] \u001b[0m264 - core 163 r3060 5db6aa6 - H.264/MPEG-4 AVC codec - Copyleft 2003-2021 - http://www.videolan.org/x264.html - options: cabac=1 ref=3 deblock=1:0:0 analyse=0x3:0x113 me=hex subme=7 psy=1 psy_rd=1.00:0.00 mixed_ref=1 me_range=16 chroma_me=1 trellis=1 8x8dct=1 cqm=0 deadzone=21,11 fast_pskip=1 chroma_qp_offset=-2 threads=3 lookahead_threads=1 sliced_threads=0 nr=0 decimate=1 interlaced=0 bluray_compat=0 constrained_intra=0 bframes=3 b_pyramid=2 b_adapt=1 b_bias=0 direct=1 weightb=1 open_gop=0 weightp=2 keyint=250 keyint_min=5 scenecut=40 intra_refresh=0 rc_lookahead=40 rc=crf mbtree=1 crf=23.0 qcomp=0.60 qpmin=0 qpmax=69 qpstep=4 ip_ratio=1.40 aq=1:1.00\n",
      "Output #0, mp4, to '/content/output.mp4':\n",
      "  Metadata:\n",
      "    major_brand     : isom\n",
      "    minor_version   : 512\n",
      "    compatible_brands: isomiso2mp41\n",
      "    encoder         : Lavf58.76.100\n",
      "  Stream #0:0(und): Video: h264 (avc1 / 0x31637661), yuv420p(progressive), 256x256 [SAR 1:1 DAR 1:1], q=2-31, 5 fps, 10240 tbn (default)\n",
      "    Metadata:\n",
      "      handler_name    : VideoHandler\n",
      "      vendor_id       : [0][0][0][0]\n",
      "      encoder         : Lavc58.134.100 libx264\n",
      "    Side data:\n",
      "      cpb: bitrate max/min/avg: 0/0/0 buffer size: 0 vbv_delay: N/A\n",
      "frame=   20 fps=0.0 q=-1.0 Lsize=     188kB time=00:00:03.40 bitrate= 453.7kbits/s speed=11.7x    \n",
      "video:187kB audio:0kB subtitle:0kB other streams:0kB global headers:0kB muxing overhead: 0.538058%\n",
      "\u001b[1;36m[libx264 @ 0x5a9767888480] \u001b[0mframe I:2     Avg QP:20.98  size: 12218\n",
      "\u001b[1;36m[libx264 @ 0x5a9767888480] \u001b[0mframe P:13    Avg QP:22.46  size:  9072\n",
      "\u001b[1;36m[libx264 @ 0x5a9767888480] \u001b[0mframe B:5     Avg QP:22.47  size:  9748\n",
      "\u001b[1;36m[libx264 @ 0x5a9767888480] \u001b[0mconsecutive B-frames: 65.0%  0.0% 15.0% 20.0%\n",
      "\u001b[1;36m[libx264 @ 0x5a9767888480] \u001b[0mmb I  I16..4:  0.0% 95.1%  4.9%\n",
      "\u001b[1;36m[libx264 @ 0x5a9767888480] \u001b[0mmb P  I16..4:  0.0% 81.5%  5.0%  P16..4:  6.9%  4.2%  2.3%  0.0%  0.0%    skip: 0.0%\n",
      "\u001b[1;36m[libx264 @ 0x5a9767888480] \u001b[0mmb B  I16..4:  0.0% 45.0%  3.5%  B16..8: 21.7% 18.0%  8.4%  direct: 3.4%  skip: 0.0%  L0:35.4% L1:23.3% BI:41.3%\n",
      "\u001b[1;36m[libx264 @ 0x5a9767888480] \u001b[0m8x8 transform intra:94.1% inter:94.2%\n",
      "\u001b[1;36m[libx264 @ 0x5a9767888480] \u001b[0mcoded y,uvDC,uvAC intra: 99.7% 41.1% 17.2% inter: 99.1% 40.7% 20.6%\n",
      "\u001b[1;36m[libx264 @ 0x5a9767888480] \u001b[0mi8 v,h,dc,ddl,ddr,vr,hd,vl,hu: 10%  6% 30%  7% 12%  9% 13%  7%  5%\n",
      "\u001b[1;36m[libx264 @ 0x5a9767888480] \u001b[0mi4 v,h,dc,ddl,ddr,vr,hd,vl,hu:  7%  7% 11%  8% 24%  9% 22%  7%  6%\n",
      "\u001b[1;36m[libx264 @ 0x5a9767888480] \u001b[0mi8c dc,h,v,p: 58% 20% 20%  2%\n",
      "\u001b[1;36m[libx264 @ 0x5a9767888480] \u001b[0mWeighted P-Frames: Y:38.5% UV:38.5%\n",
      "\u001b[1;36m[libx264 @ 0x5a9767888480] \u001b[0mref P L0: 51.7% 27.0% 14.6%  6.1%  0.6%\n",
      "\u001b[1;36m[libx264 @ 0x5a9767888480] \u001b[0mref B L0: 97.1%  2.9%\n",
      "\u001b[1;36m[libx264 @ 0x5a9767888480] \u001b[0mref B L1: 96.6%  3.4%\n",
      "\u001b[1;36m[libx264 @ 0x5a9767888480] \u001b[0mkb/s:382.23\n",
      "100% 10/10 [00:10<00:00,  1.07s/it]\n",
      "ffmpeg version 4.4.2-0ubuntu0.22.04.1 Copyright (c) 2000-2021 the FFmpeg developers\n",
      "  built with gcc 11 (Ubuntu 11.2.0-19ubuntu1)\n",
      "  configuration: --prefix=/usr --extra-version=0ubuntu0.22.04.1 --toolchain=hardened --libdir=/usr/lib/x86_64-linux-gnu --incdir=/usr/include/x86_64-linux-gnu --arch=amd64 --enable-gpl --disable-stripping --enable-gnutls --enable-ladspa --enable-libaom --enable-libass --enable-libbluray --enable-libbs2b --enable-libcaca --enable-libcdio --enable-libcodec2 --enable-libdav1d --enable-libflite --enable-libfontconfig --enable-libfreetype --enable-libfribidi --enable-libgme --enable-libgsm --enable-libjack --enable-libmp3lame --enable-libmysofa --enable-libopenjpeg --enable-libopenmpt --enable-libopus --enable-libpulse --enable-librabbitmq --enable-librubberband --enable-libshine --enable-libsnappy --enable-libsoxr --enable-libspeex --enable-libsrt --enable-libssh --enable-libtheora --enable-libtwolame --enable-libvidstab --enable-libvorbis --enable-libvpx --enable-libwebp --enable-libx265 --enable-libxml2 --enable-libxvid --enable-libzimg --enable-libzmq --enable-libzvbi --enable-lv2 --enable-omx --enable-openal --enable-opencl --enable-opengl --enable-sdl2 --enable-pocketsphinx --enable-librsvg --enable-libmfx --enable-libdc1394 --enable-libdrm --enable-libiec61883 --enable-chromaprint --enable-frei0r --enable-libx264 --enable-shared\n",
      "  libavutil      56. 70.100 / 56. 70.100\n",
      "  libavcodec     58.134.100 / 58.134.100\n",
      "  libavformat    58. 76.100 / 58. 76.100\n",
      "  libavdevice    58. 13.100 / 58. 13.100\n",
      "  libavfilter     7.110.100 /  7.110.100\n",
      "  libswscale      5.  9.100 /  5.  9.100\n",
      "  libswresample   3.  9.100 /  3.  9.100\n",
      "  libpostproc    55.  9.100 / 55.  9.100\n",
      "Input #0, mov,mp4,m4a,3gp,3g2,mj2, from '/tmp/tmpcr820s05.mp4':\n",
      "  Metadata:\n",
      "    major_brand     : isom\n",
      "    minor_version   : 512\n",
      "    compatible_brands: isomiso2mp41\n",
      "    encoder         : Lavf59.27.100\n",
      "  Duration: 00:00:04.00, start: 0.000000, bitrate: 326 kb/s\n",
      "  Stream #0:0(und): Video: mpeg4 (Simple Profile) (mp4v / 0x7634706D), yuv420p, 256x256 [SAR 1:1 DAR 1:1], 324 kb/s, 5 fps, 5 tbr, 10240 tbn, 5 tbc (default)\n",
      "    Metadata:\n",
      "      handler_name    : VideoHandler\n",
      "      vendor_id       : [0][0][0][0]\n",
      "Stream mapping:\n",
      "  Stream #0:0 -> #0:0 (mpeg4 (native) -> h264 (libx264))\n",
      "Press [q] to stop, [?] for help\n",
      "\u001b[1;36m[libx264 @ 0x5b36dbe9eac0] \u001b[0musing SAR=1/1\n",
      "\u001b[1;36m[libx264 @ 0x5b36dbe9eac0] \u001b[0musing cpu capabilities: MMX2 SSE2Fast SSSE3 SSE4.2 AVX FMA3 BMI2 AVX2 AVX512\n",
      "\u001b[1;36m[libx264 @ 0x5b36dbe9eac0] \u001b[0mprofile High, level 1.2, 4:2:0, 8-bit\n",
      "\u001b[1;36m[libx264 @ 0x5b36dbe9eac0] \u001b[0m264 - core 163 r3060 5db6aa6 - H.264/MPEG-4 AVC codec - Copyleft 2003-2021 - http://www.videolan.org/x264.html - options: cabac=1 ref=3 deblock=1:0:0 analyse=0x3:0x113 me=hex subme=7 psy=1 psy_rd=1.00:0.00 mixed_ref=1 me_range=16 chroma_me=1 trellis=1 8x8dct=1 cqm=0 deadzone=21,11 fast_pskip=1 chroma_qp_offset=-2 threads=3 lookahead_threads=1 sliced_threads=0 nr=0 decimate=1 interlaced=0 bluray_compat=0 constrained_intra=0 bframes=3 b_pyramid=2 b_adapt=1 b_bias=0 direct=1 weightb=1 open_gop=0 weightp=2 keyint=250 keyint_min=5 scenecut=40 intra_refresh=0 rc_lookahead=40 rc=crf mbtree=1 crf=23.0 qcomp=0.60 qpmin=0 qpmax=69 qpstep=4 ip_ratio=1.40 aq=1:1.00\n",
      "Output #0, mp4, to '/content/output.mp4':\n",
      "  Metadata:\n",
      "    major_brand     : isom\n",
      "    minor_version   : 512\n",
      "    compatible_brands: isomiso2mp41\n",
      "    encoder         : Lavf58.76.100\n",
      "  Stream #0:0(und): Video: h264 (avc1 / 0x31637661), yuv420p(progressive), 256x256 [SAR 1:1 DAR 1:1], q=2-31, 5 fps, 10240 tbn (default)\n",
      "    Metadata:\n",
      "      handler_name    : VideoHandler\n",
      "      vendor_id       : [0][0][0][0]\n",
      "      encoder         : Lavc58.134.100 libx264\n",
      "    Side data:\n",
      "      cpb: bitrate max/min/avg: 0/0/0 buffer size: 0 vbv_delay: N/A\n",
      "frame=   20 fps=0.0 q=-1.0 Lsize=     151kB time=00:00:03.40 bitrate= 364.4kbits/s speed=13.8x    \n",
      "video:150kB audio:0kB subtitle:0kB other streams:0kB global headers:0kB muxing overhead: 0.728337%\n",
      "\u001b[1;36m[libx264 @ 0x5b36dbe9eac0] \u001b[0mframe I:2     Avg QP:19.89  size:  9781\n",
      "\u001b[1;36m[libx264 @ 0x5b36dbe9eac0] \u001b[0mframe P:5     Avg QP:20.72  size:  7666\n",
      "\u001b[1;36m[libx264 @ 0x5b36dbe9eac0] \u001b[0mframe B:13    Avg QP:21.24  size:  7323\n",
      "\u001b[1;36m[libx264 @ 0x5b36dbe9eac0] \u001b[0mconsecutive B-frames: 10.0% 10.0%  0.0% 80.0%\n",
      "\u001b[1;36m[libx264 @ 0x5b36dbe9eac0] \u001b[0mmb I  I16..4:  0.4% 99.0%  0.6%\n",
      "\u001b[1;36m[libx264 @ 0x5b36dbe9eac0] \u001b[0mmb P  I16..4:  0.2% 73.9%  2.3%  P16..4:  9.3% 10.7%  3.7%  0.0%  0.0%    skip: 0.0%\n",
      "\u001b[1;36m[libx264 @ 0x5b36dbe9eac0] \u001b[0mmb B  I16..4:  0.2% 25.5%  0.7%  B16..8: 35.9% 19.8%  8.1%  direct: 7.9%  skip: 1.8%  L0:43.3% L1:29.4% BI:27.3%\n",
      "\u001b[1;36m[libx264 @ 0x5b36dbe9eac0] \u001b[0m8x8 transform intra:97.3% inter:93.0%\n",
      "\u001b[1;36m[libx264 @ 0x5b36dbe9eac0] \u001b[0mcoded y,uvDC,uvAC intra: 98.6% 46.2% 9.3% inter: 82.9% 35.4% 0.2%\n",
      "\u001b[1;36m[libx264 @ 0x5b36dbe9eac0] \u001b[0mi16 v,h,dc,p: 11% 22% 56% 11%\n",
      "\u001b[1;36m[libx264 @ 0x5b36dbe9eac0] \u001b[0mi8 v,h,dc,ddl,ddr,vr,hd,vl,hu:  6% 19% 48%  3%  3%  2%  7%  2%  8%\n",
      "\u001b[1;36m[libx264 @ 0x5b36dbe9eac0] \u001b[0mi4 v,h,dc,ddl,ddr,vr,hd,vl,hu: 14% 20% 13% 12%  8%  6% 11%  7%  9%\n",
      "\u001b[1;36m[libx264 @ 0x5b36dbe9eac0] \u001b[0mi8c dc,h,v,p: 58% 24% 14%  4%\n",
      "\u001b[1;36m[libx264 @ 0x5b36dbe9eac0] \u001b[0mWeighted P-Frames: Y:20.0% UV:0.0%\n",
      "\u001b[1;36m[libx264 @ 0x5b36dbe9eac0] \u001b[0mref P L0: 54.6% 19.6% 20.1%  4.7%  1.0%\n",
      "\u001b[1;36m[libx264 @ 0x5b36dbe9eac0] \u001b[0mref B L0: 91.9%  6.8%  1.3%\n",
      "\u001b[1;36m[libx264 @ 0x5b36dbe9eac0] \u001b[0mref B L1: 96.3%  3.7%\n",
      "\u001b[1;36m[libx264 @ 0x5b36dbe9eac0] \u001b[0mkb/s:306.17\n",
      "100% 10/10 [00:11<00:00,  1.14s/it]\n",
      "ffmpeg version 4.4.2-0ubuntu0.22.04.1 Copyright (c) 2000-2021 the FFmpeg developers\n",
      "  built with gcc 11 (Ubuntu 11.2.0-19ubuntu1)\n",
      "  configuration: --prefix=/usr --extra-version=0ubuntu0.22.04.1 --toolchain=hardened --libdir=/usr/lib/x86_64-linux-gnu --incdir=/usr/include/x86_64-linux-gnu --arch=amd64 --enable-gpl --disable-stripping --enable-gnutls --enable-ladspa --enable-libaom --enable-libass --enable-libbluray --enable-libbs2b --enable-libcaca --enable-libcdio --enable-libcodec2 --enable-libdav1d --enable-libflite --enable-libfontconfig --enable-libfreetype --enable-libfribidi --enable-libgme --enable-libgsm --enable-libjack --enable-libmp3lame --enable-libmysofa --enable-libopenjpeg --enable-libopenmpt --enable-libopus --enable-libpulse --enable-librabbitmq --enable-librubberband --enable-libshine --enable-libsnappy --enable-libsoxr --enable-libspeex --enable-libsrt --enable-libssh --enable-libtheora --enable-libtwolame --enable-libvidstab --enable-libvorbis --enable-libvpx --enable-libwebp --enable-libx265 --enable-libxml2 --enable-libxvid --enable-libzimg --enable-libzmq --enable-libzvbi --enable-lv2 --enable-omx --enable-openal --enable-opencl --enable-opengl --enable-sdl2 --enable-pocketsphinx --enable-librsvg --enable-libmfx --enable-libdc1394 --enable-libdrm --enable-libiec61883 --enable-chromaprint --enable-frei0r --enable-libx264 --enable-shared\n",
      "  libavutil      56. 70.100 / 56. 70.100\n",
      "  libavcodec     58.134.100 / 58.134.100\n",
      "  libavformat    58. 76.100 / 58. 76.100\n",
      "  libavdevice    58. 13.100 / 58. 13.100\n",
      "  libavfilter     7.110.100 /  7.110.100\n",
      "  libswscale      5.  9.100 /  5.  9.100\n",
      "  libswresample   3.  9.100 /  3.  9.100\n",
      "  libpostproc    55.  9.100 / 55.  9.100\n",
      "Input #0, mov,mp4,m4a,3gp,3g2,mj2, from '/tmp/tmp4wonlmtr.mp4':\n",
      "  Metadata:\n",
      "    major_brand     : isom\n",
      "    minor_version   : 512\n",
      "    compatible_brands: isomiso2mp41\n",
      "    encoder         : Lavf59.27.100\n",
      "  Duration: 00:00:04.00, start: 0.000000, bitrate: 510 kb/s\n",
      "  Stream #0:0(und): Video: mpeg4 (Simple Profile) (mp4v / 0x7634706D), yuv420p, 256x256 [SAR 1:1 DAR 1:1], 508 kb/s, 5 fps, 5 tbr, 10240 tbn, 5 tbc (default)\n",
      "    Metadata:\n",
      "      handler_name    : VideoHandler\n",
      "      vendor_id       : [0][0][0][0]\n",
      "Stream mapping:\n",
      "  Stream #0:0 -> #0:0 (mpeg4 (native) -> h264 (libx264))\n",
      "Press [q] to stop, [?] for help\n",
      "\u001b[1;36m[libx264 @ 0x56908f9f69c0] \u001b[0musing SAR=1/1\n",
      "\u001b[1;36m[libx264 @ 0x56908f9f69c0] \u001b[0musing cpu capabilities: MMX2 SSE2Fast SSSE3 SSE4.2 AVX FMA3 BMI2 AVX2 AVX512\n",
      "\u001b[1;36m[libx264 @ 0x56908f9f69c0] \u001b[0mprofile High, level 1.2, 4:2:0, 8-bit\n",
      "\u001b[1;36m[libx264 @ 0x56908f9f69c0] \u001b[0m264 - core 163 r3060 5db6aa6 - H.264/MPEG-4 AVC codec - Copyleft 2003-2021 - http://www.videolan.org/x264.html - options: cabac=1 ref=3 deblock=1:0:0 analyse=0x3:0x113 me=hex subme=7 psy=1 psy_rd=1.00:0.00 mixed_ref=1 me_range=16 chroma_me=1 trellis=1 8x8dct=1 cqm=0 deadzone=21,11 fast_pskip=1 chroma_qp_offset=-2 threads=3 lookahead_threads=1 sliced_threads=0 nr=0 decimate=1 interlaced=0 bluray_compat=0 constrained_intra=0 bframes=3 b_pyramid=2 b_adapt=1 b_bias=0 direct=1 weightb=1 open_gop=0 weightp=2 keyint=250 keyint_min=5 scenecut=40 intra_refresh=0 rc_lookahead=40 rc=crf mbtree=1 crf=23.0 qcomp=0.60 qpmin=0 qpmax=69 qpstep=4 ip_ratio=1.40 aq=1:1.00\n",
      "Output #0, mp4, to '/content/output.mp4':\n",
      "  Metadata:\n",
      "    major_brand     : isom\n",
      "    minor_version   : 512\n",
      "    compatible_brands: isomiso2mp41\n",
      "    encoder         : Lavf58.76.100\n",
      "  Stream #0:0(und): Video: h264 (avc1 / 0x31637661), yuv420p(progressive), 256x256 [SAR 1:1 DAR 1:1], q=2-31, 5 fps, 10240 tbn (default)\n",
      "    Metadata:\n",
      "      handler_name    : VideoHandler\n",
      "      vendor_id       : [0][0][0][0]\n",
      "      encoder         : Lavc58.134.100 libx264\n",
      "    Side data:\n",
      "      cpb: bitrate max/min/avg: 0/0/0 buffer size: 0 vbv_delay: N/A\n",
      "frame=   20 fps=0.0 q=-1.0 Lsize=     177kB time=00:00:03.40 bitrate= 427.1kbits/s speed=13.9x    \n",
      "video:176kB audio:0kB subtitle:0kB other streams:0kB global headers:0kB muxing overhead: 0.616401%\n",
      "\u001b[1;36m[libx264 @ 0x56908f9f69c0] \u001b[0mframe I:2     Avg QP:21.65  size: 12048\n",
      "\u001b[1;36m[libx264 @ 0x56908f9f69c0] \u001b[0mframe P:6     Avg QP:23.09  size:  9235\n",
      "\u001b[1;36m[libx264 @ 0x56908f9f69c0] \u001b[0mframe B:12    Avg QP:23.46  size:  8351\n",
      "\u001b[1;36m[libx264 @ 0x56908f9f69c0] \u001b[0mconsecutive B-frames: 20.0%  0.0%  0.0% 80.0%\n",
      "\u001b[1;36m[libx264 @ 0x56908f9f69c0] \u001b[0mmb I  I16..4:  0.4% 86.5% 13.1%\n",
      "\u001b[1;36m[libx264 @ 0x56908f9f69c0] \u001b[0mmb P  I16..4:  0.4% 62.4% 13.8%  P16..4: 10.7%  9.8%  2.8%  0.0%  0.0%    skip: 0.0%\n",
      "\u001b[1;36m[libx264 @ 0x56908f9f69c0] \u001b[0mmb B  I16..4:  0.1% 26.9% 12.5%  B16..8: 26.8% 20.1%  7.4%  direct: 5.6%  skip: 0.6%  L0:44.1% L1:21.2% BI:34.7%\n",
      "\u001b[1;36m[libx264 @ 0x56908f9f69c0] \u001b[0m8x8 transform intra:76.8% inter:82.2%\n",
      "\u001b[1;36m[libx264 @ 0x56908f9f69c0] \u001b[0mcoded y,uvDC,uvAC intra: 98.4% 93.2% 61.0% inter: 89.2% 70.0% 3.8%\n",
      "\u001b[1;36m[libx264 @ 0x56908f9f69c0] \u001b[0mi16 v,h,dc,p: 20%  0%  0% 80%\n",
      "\u001b[1;36m[libx264 @ 0x56908f9f69c0] \u001b[0mi8 v,h,dc,ddl,ddr,vr,hd,vl,hu: 33% 10% 16%  4%  6%  7% 10%  7%  7%\n",
      "\u001b[1;36m[libx264 @ 0x56908f9f69c0] \u001b[0mi4 v,h,dc,ddl,ddr,vr,hd,vl,hu: 14% 12% 12%  9% 12% 10% 12%  9% 10%\n",
      "\u001b[1;36m[libx264 @ 0x56908f9f69c0] \u001b[0mi8c dc,h,v,p: 41% 17% 31% 11%\n",
      "\u001b[1;36m[libx264 @ 0x56908f9f69c0] \u001b[0mWeighted P-Frames: Y:0.0% UV:0.0%\n",
      "\u001b[1;36m[libx264 @ 0x56908f9f69c0] \u001b[0mref P L0: 58.5% 32.9%  7.1%  1.5%\n",
      "\u001b[1;36m[libx264 @ 0x56908f9f69c0] \u001b[0mref B L0: 97.5%  1.8%  0.7%\n",
      "\u001b[1;36m[libx264 @ 0x56908f9f69c0] \u001b[0mref B L1: 95.5%  4.5%\n",
      "\u001b[1;36m[libx264 @ 0x56908f9f69c0] \u001b[0mkb/s:359.43\n",
      "ffmpeg version 4.4.2-0ubuntu0.22.04.1 Copyright (c) 2000-2021 the FFmpeg developers\n",
      "  built with gcc 11 (Ubuntu 11.2.0-19ubuntu1)\n",
      "  configuration: --prefix=/usr --extra-version=0ubuntu0.22.04.1 --toolchain=hardened --libdir=/usr/lib/x86_64-linux-gnu --incdir=/usr/include/x86_64-linux-gnu --arch=amd64 --enable-gpl --disable-stripping --enable-gnutls --enable-ladspa --enable-libaom --enable-libass --enable-libbluray --enable-libbs2b --enable-libcaca --enable-libcdio --enable-libcodec2 --enable-libdav1d --enable-libflite --enable-libfontconfig --enable-libfreetype --enable-libfribidi --enable-libgme --enable-libgsm --enable-libjack --enable-libmp3lame --enable-libmysofa --enable-libopenjpeg --enable-libopenmpt --enable-libopus --enable-libpulse --enable-librabbitmq --enable-librubberband --enable-libshine --enable-libsnappy --enable-libsoxr --enable-libspeex --enable-libsrt --enable-libssh --enable-libtheora --enable-libtwolame --enable-libvidstab --enable-libvorbis --enable-libvpx --enable-libwebp --enable-libx265 --enable-libxml2 --enable-libxvid --enable-libzimg --enable-libzmq --enable-libzvbi --enable-lv2 --enable-omx --enable-openal --enable-opencl --enable-opengl --enable-sdl2 --enable-pocketsphinx --enable-librsvg --enable-libmfx --enable-libdc1394 --enable-libdrm --enable-libiec61883 --enable-chromaprint --enable-frei0r --enable-libx264 --enable-shared\n",
      "  libavutil      56. 70.100 / 56. 70.100\n",
      "  libavcodec     58.134.100 / 58.134.100\n",
      "  libavformat    58. 76.100 / 58. 76.100\n",
      "  libavdevice    58. 13.100 / 58. 13.100\n",
      "  libavfilter     7.110.100 /  7.110.100\n",
      "  libswscale      5.  9.100 /  5.  9.100\n",
      "  libswresample   3.  9.100 /  3.  9.100\n",
      "  libpostproc    55.  9.100 / 55.  9.100\n",
      "Input #0, mov,mp4,m4a,3gp,3g2,mj2, from '/tmp/tmp4wonlmtr.mp4':\n",
      "  Metadata:\n",
      "    major_brand     : isom\n",
      "    minor_version   : 512\n",
      "    compatible_brands: isomiso2mp41\n",
      "    encoder         : Lavf59.27.100\n",
      "  Duration: 00:00:04.00, start: 0.000000, bitrate: 510 kb/s\n",
      "  Stream #0:0(und): Video: mpeg4 (Simple Profile) (mp4v / 0x7634706D), yuv420p, 256x256 [SAR 1:1 DAR 1:1], 508 kb/s, 5 fps, 5 tbr, 10240 tbn, 5 tbc (default)\n",
      "    Metadata:\n",
      "      handler_name    : VideoHandler\n",
      "      vendor_id       : [0][0][0][0]\n",
      "Stream mapping:\n",
      "  Stream #0:0 -> #0:0 (mpeg4 (native) -> h264 (libx264))\n",
      "Press [q] to stop, [?] for help\n",
      "\u001b[1;36m[libx264 @ 0x55f8f6ca49c0] \u001b[0musing SAR=1/1\n",
      "\u001b[1;36m[libx264 @ 0x55f8f6ca49c0] \u001b[0musing cpu capabilities: MMX2 SSE2Fast SSSE3 SSE4.2 AVX FMA3 BMI2 AVX2 AVX512\n",
      "\u001b[1;36m[libx264 @ 0x55f8f6ca49c0] \u001b[0mprofile High, level 1.2, 4:2:0, 8-bit\n",
      "\u001b[1;36m[libx264 @ 0x55f8f6ca49c0] \u001b[0m264 - core 163 r3060 5db6aa6 - H.264/MPEG-4 AVC codec - Copyleft 2003-2021 - http://www.videolan.org/x264.html - options: cabac=1 ref=3 deblock=1:0:0 analyse=0x3:0x113 me=hex subme=7 psy=1 psy_rd=1.00:0.00 mixed_ref=1 me_range=16 chroma_me=1 trellis=1 8x8dct=1 cqm=0 deadzone=21,11 fast_pskip=1 chroma_qp_offset=-2 threads=3 lookahead_threads=1 sliced_threads=0 nr=0 decimate=1 interlaced=0 bluray_compat=0 constrained_intra=0 bframes=3 b_pyramid=2 b_adapt=1 b_bias=0 direct=1 weightb=1 open_gop=0 weightp=2 keyint=250 keyint_min=5 scenecut=40 intra_refresh=0 rc_lookahead=40 rc=crf mbtree=1 crf=23.0 qcomp=0.60 qpmin=0 qpmax=69 qpstep=4 ip_ratio=1.40 aq=1:1.00\n",
      "Output #0, mp4, to '/content/output.mp4':\n",
      "  Metadata:\n",
      "    major_brand     : isom\n",
      "    minor_version   : 512\n",
      "    compatible_brands: isomiso2mp41\n",
      "    encoder         : Lavf58.76.100\n",
      "  Stream #0:0(und): Video: h264 (avc1 / 0x31637661), yuv420p(progressive), 256x256 [SAR 1:1 DAR 1:1], q=2-31, 5 fps, 10240 tbn (default)\n",
      "    Metadata:\n",
      "      handler_name    : VideoHandler\n",
      "      vendor_id       : [0][0][0][0]\n",
      "      encoder         : Lavc58.134.100 libx264\n",
      "    Side data:\n",
      "      cpb: bitrate max/min/avg: 0/0/0 buffer size: 0 vbv_delay: N/A\n",
      "ffmpeg version 4.4.2-0ubuntu0.22.04.1 Copyright (c) 2000-2021 the FFmpeg developers\n",
      "  built with gcc 11 (Ubuntu 11.2.0-19ubuntu1)\n",
      "  configuration: --prefix=/usr --extra-version=0ubuntu0.22.04.1 --toolchain=hardened --libdir=/usr/lib/x86_64-linux-gnu --incdir=/usr/include/x86_64-linux-gnu --arch=amd64 --enable-gpl --disable-stripping --enable-gnutls --enable-ladspa --enable-libaom --enable-libass --enable-libbluray --enable-libbs2b --enable-libcaca --enable-libcdio --enable-libcodec2 --enable-libdav1d --enable-libflite --enable-libfontconfig --enable-libfreetype --enable-libfribidi --enable-libgme --enable-libgsm --enable-libjack --enable-libmp3lame --enable-libmysofa --enable-libopenjpeg --enable-libopenmpt --enable-libopus --enable-libpulse --enable-librabbitmq --enable-librubberband --enable-libshine --enable-libsnappy --enable-libsoxr --enable-libspeex --enable-libsrt --enable-libssh --enable-libtheora --enable-libtwolame --enable-libvidstab --enable-libvorbis --enable-libvpx --enable-libwebp --enable-libx265 --enable-libxml2 --enable-libxvid --enable-libzimg --enable-libzmq --enable-libzvbi --enable-lv2 --enable-omx --enable-openal --enable-opencl --enable-opengl --enable-sdl2 --enable-pocketsphinx --enable-librsvg --enable-libmfx --enable-libdc1394 --enable-libdrm --enable-libiec61883 --enable-chromaprint --enable-frei0r --enable-libx264 --enable-shared\n",
      "  libavutil      56. 70.100 / 56. 70.100\n",
      "  libavcodec     58.134.100 / 58.134.100\n",
      "  libavformat    58. 76.100 / 58. 76.100\n",
      "  libavdevice    58. 13.100 / 58. 13.100\n",
      "  libavfilter     7.110.100 /  7.110.100\n",
      "  libswscale      5.  9.100 /  5.  9.100\n",
      "  libswresample   3.  9.100 /  3.  9.100\n",
      "  libpostproc    55.  9.100 / 55.  9.100\n",
      "Input #0, mov,mp4,m4a,3gp,3g2,mj2, from '/tmp/tmp4wonlmtr.mp4':\n",
      "  Metadata:\n",
      "    major_brand     : isom\n",
      "    minor_version   : 512\n",
      "    compatible_brands: isomiso2mp41\n",
      "    encoder         : Lavf59.27.100\n",
      "  Duration: 00:00:04.00, start: 0.000000, bitrate: 510 kb/s\n",
      "  Stream #0:0(und): Video: mpeg4 (Simple Profile) (mp4v / 0x7634706D), yuv420p, 256x256 [SAR 1:1 DAR 1:1], 508 kb/s, 5 fps, 5 tbr, 10240 tbn, 5 tbc (default)\n",
      "    Metadata:\n",
      "      handler_name    : VideoHandler\n",
      "      vendor_id       : [0][0][0][0]\n",
      "Stream mapping:\n",
      "  Stream #0:0 -> #0:0 (mpeg4 (native) -> h264 (libx264))\n",
      "Press [q] to stop, [?] for help\n",
      "\u001b[1;36m[libx264 @ 0x5b30cad0e9c0] \u001b[0musing SAR=1/1\n",
      "\u001b[1;36m[libx264 @ 0x5b30cad0e9c0] \u001b[0musing cpu capabilities: MMX2 SSE2Fast SSSE3 SSE4.2 AVX FMA3 BMI2 AVX2 AVX512\n",
      "\u001b[1;36m[libx264 @ 0x5b30cad0e9c0] \u001b[0mprofile High, level 1.2, 4:2:0, 8-bit\n",
      "\u001b[1;36m[libx264 @ 0x5b30cad0e9c0] \u001b[0m264 - core 163 r3060 5db6aa6 - H.264/MPEG-4 AVC codec - Copyleft 2003-2021 - http://www.videolan.org/x264.html - options: cabac=1 ref=3 deblock=1:0:0 analyse=0x3:0x113 me=hex subme=7 psy=1 psy_rd=1.00:0.00 mixed_ref=1 me_range=16 chroma_me=1 trellis=1 8x8dct=1 cqm=0 deadzone=21,11 fast_pskip=1 chroma_qp_offset=-2 threads=3 lookahead_threads=1 sliced_threads=0 nr=0 decimate=1 interlaced=0 bluray_compat=0 constrained_intra=0 bframes=3 b_pyramid=2 b_adapt=1 b_bias=0 direct=1 weightb=1 open_gop=0 weightp=2 keyint=250 keyint_min=5 scenecut=40 intra_refresh=0 rc_lookahead=40 rc=crf mbtree=1 crf=23.0 qcomp=0.60 qpmin=0 qpmax=69 qpstep=4 ip_ratio=1.40 aq=1:1.00\n",
      "Output #0, mp4, to '/content/output.mp4':\n",
      "  Metadata:\n",
      "    major_brand     : isom\n",
      "    minor_version   : 512\n",
      "    compatible_brands: isomiso2mp41\n",
      "    encoder         : Lavf58.76.100\n",
      "  Stream #0:0(und): Video: h264 (avc1 / 0x31637661), yuv420p(progressive), 256x256 [SAR 1:1 DAR 1:1], q=2-31, 5 fps, 10240 tbn (default)\n",
      "    Metadata:\n",
      "      handler_name    : VideoHandler\n",
      "      vendor_id       : [0][0][0][0]\n",
      "      encoder         : Lavc58.134.100 libx264\n",
      "    Side data:\n",
      "      cpb: bitrate max/min/avg: 0/0/0 buffer size: 0 vbv_delay: N/A\n",
      "ffmpeg version 4.4.2-0ubuntu0.22.04.1 Copyright (c) 2000-2021 the FFmpeg developers\n",
      "  built with gcc 11 (Ubuntu 11.2.0-19ubuntu1)\n",
      "  configuration: --prefix=/usr --extra-version=0ubuntu0.22.04.1 --toolchain=hardened --libdir=/usr/lib/x86_64-linux-gnu --incdir=/usr/include/x86_64-linux-gnu --arch=amd64 --enable-gpl --disable-stripping --enable-gnutls --enable-ladspa --enable-libaom --enable-libass --enable-libbluray --enable-libbs2b --enable-libcaca --enable-libcdio --enable-libcodec2 --enable-libdav1d --enable-libflite --enable-libfontconfig --enable-libfreetype --enable-libfribidi --enable-libgme --enable-libgsm --enable-libjack --enable-libmp3lame --enable-libmysofa --enable-libopenjpeg --enable-libopenmpt --enable-libopus --enable-libpulse --enable-librabbitmq --enable-librubberband --enable-libshine --enable-libsnappy --enable-libsoxr --enable-libspeex --enable-libsrt --enable-libssh --enable-libtheora --enable-libtwolame --enable-libvidstab --enable-libvorbis --enable-libvpx --enable-libwebp --enable-libx265 --enable-libxml2 --enable-libxvid --enable-libzimg --enable-libzmq --enable-libzvbi --enable-lv2 --enable-omx --enable-openal --enable-opencl --enable-opengl --enable-sdl2 --enable-pocketsphinx --enable-librsvg --enable-libmfx --enable-libdc1394 --enable-libdrm --enable-libiec61883 --enable-chromaprint --enable-frei0r --enable-libx264 --enable-shared\n",
      "  libavutil      56. 70.100 / 56. 70.100\n",
      "  libavcodec     58.134.100 / 58.134.100\n",
      "  libavformat    58. 76.100 / 58. 76.100\n",
      "  libavdevice    58. 13.100 / 58. 13.100\n",
      "  libavfilter     7.110.100 /  7.110.100\n",
      "  libswscale      5.  9.100 /  5.  9.100\n",
      "  libswresample   3.  9.100 /  3.  9.100\n",
      "  libpostproc    55.  9.100 / 55.  9.100\n",
      "Input #0, mov,mp4,m4a,3gp,3g2,mj2, from '/tmp/tmp4wonlmtr.mp4':\n",
      "  Metadata:\n",
      "    major_brand     : isom\n",
      "    minor_version   : 512\n",
      "    compatible_brands: isomiso2mp41\n",
      "    encoder         : Lavf59.27.100\n",
      "  Duration: 00:00:04.00, start: 0.000000, bitrate: 510 kb/s\n",
      "  Stream #0:0(und): Video: mpeg4 (Simple Profile) (mp4v / 0x7634706D), yuv420p, 256x256 [SAR 1:1 DAR 1:1], 508 kb/s, 5 fps, 5 tbr, 10240 tbn, 5 tbc (default)\n",
      "    Metadata:\n",
      "      handler_name    : VideoHandler\n",
      "      vendor_id       : [0][0][0][0]\n",
      "Stream mapping:\n",
      "  Stream #0:0 -> #0:0 (mpeg4 (native) -> h264 (libx264))\n",
      "Press [q] to stop, [?] for help\n",
      "\u001b[1;36m[libx264 @ 0x5618d59ca9c0] \u001b[0musing SAR=1/1\n",
      "\u001b[1;36m[libx264 @ 0x5618d59ca9c0] \u001b[0musing cpu capabilities: MMX2 SSE2Fast SSSE3 SSE4.2 AVX FMA3 BMI2 AVX2 AVX512\n",
      "\u001b[1;36m[libx264 @ 0x5618d59ca9c0] \u001b[0mprofile High, level 1.2, 4:2:0, 8-bit\n",
      "\u001b[1;36m[libx264 @ 0x5618d59ca9c0] \u001b[0m264 - core 163 r3060 5db6aa6 - H.264/MPEG-4 AVC codec - Copyleft 2003-2021 - http://www.videolan.org/x264.html - options: cabac=1 ref=3 deblock=1:0:0 analyse=0x3:0x113 me=hex subme=7 psy=1 psy_rd=1.00:0.00 mixed_ref=1 me_range=16 chroma_me=1 trellis=1 8x8dct=1 cqm=0 deadzone=21,11 fast_pskip=1 chroma_qp_offset=-2 threads=3 lookahead_threads=1 sliced_threads=0 nr=0 decimate=1 interlaced=0 bluray_compat=0 constrained_intra=0 bframes=3 b_pyramid=2 b_adapt=1 b_bias=0 direct=1 weightb=1 open_gop=0 weightp=2 keyint=250 keyint_min=5 scenecut=40 intra_refresh=0 rc_lookahead=40 rc=crf mbtree=1 crf=23.0 qcomp=0.60 qpmin=0 qpmax=69 qpstep=4 ip_ratio=1.40 aq=1:1.00\n",
      "Output #0, mp4, to '/content/output.mp4':\n",
      "  Metadata:\n",
      "    major_brand     : isom\n",
      "    minor_version   : 512\n",
      "    compatible_brands: isomiso2mp41\n",
      "    encoder         : Lavf58.76.100\n",
      "  Stream #0:0(und): Video: h264 (avc1 / 0x31637661), yuv420p(progressive), 256x256 [SAR 1:1 DAR 1:1], q=2-31, 5 fps, 10240 tbn (default)\n",
      "    Metadata:\n",
      "      handler_name    : VideoHandler\n",
      "      vendor_id       : [0][0][0][0]\n",
      "      encoder         : Lavc58.134.100 libx264\n",
      "    Side data:\n",
      "      cpb: bitrate max/min/avg: 0/0/0 buffer size: 0 vbv_delay: N/A\n",
      "frame=   20 fps=0.0 q=-1.0 Lsize=     177kB time=00:00:03.40 bitrate= 427.1kbits/s speed= 4.1x    \n",
      "video:176kB audio:0kB subtitle:0kB other streams:0kB global headers:0kB muxing overhead: 0.616401%\n",
      "\u001b[1;36m[libx264 @ 0x55f8f6ca49c0] \u001b[0mframe I:2     Avg QP:21.65  size: 12048\n",
      "\u001b[1;36m[libx264 @ 0x55f8f6ca49c0] \u001b[0mframe P:6     Avg QP:23.09  size:  9235\n",
      "\u001b[1;36m[libx264 @ 0x55f8f6ca49c0] \u001b[0mframe B:12    Avg QP:23.46  size:  8351\n",
      "\u001b[1;36m[libx264 @ 0x55f8f6ca49c0] \u001b[0mconsecutive B-frames: 20.0%  0.0%  0.0% 80.0%\n",
      "\u001b[1;36m[libx264 @ 0x55f8f6ca49c0] \u001b[0mmb I  I16..4:  0.4% 86.5% 13.1%\n",
      "\u001b[1;36m[libx264 @ 0x55f8f6ca49c0] \u001b[0mmb P  I16..4:  0.4% 62.4% 13.8%  P16..4: 10.7%  9.8%  2.8%  0.0%  0.0%    skip: 0.0%\n",
      "\u001b[1;36m[libx264 @ 0x55f8f6ca49c0] \u001b[0mmb B  I16..4:  0.1% 26.9% 12.5%  B16..8: 26.8% 20.1%  7.4%  direct: 5.6%  skip: 0.6%  L0:44.1% L1:21.2% BI:34.7%\n",
      "\u001b[1;36m[libx264 @ 0x55f8f6ca49c0] \u001b[0m8x8 transform intra:76.8% inter:82.2%\n",
      "\u001b[1;36m[libx264 @ 0x55f8f6ca49c0] \u001b[0mcoded y,uvDC,uvAC intra: 98.4% 93.2% 61.0% inter: 89.2% 70.0% 3.8%\n",
      "\u001b[1;36m[libx264 @ 0x55f8f6ca49c0] \u001b[0mi16 v,h,dc,p: 20%  0%  0% 80%\n",
      "\u001b[1;36m[libx264 @ 0x55f8f6ca49c0] \u001b[0mi8 v,h,dc,ddl,ddr,vr,hd,vl,hu: 33% 10% 16%  4%  6%  7% 10%  7%  7%\n",
      "\u001b[1;36m[libx264 @ 0x55f8f6ca49c0] \u001b[0mi4 v,h,dc,ddl,ddr,vr,hd,vl,hu: 14% 12% 12%  9% 12% 10% 12%  9% 10%\n",
      "\u001b[1;36m[libx264 @ 0x55f8f6ca49c0] \u001b[0mi8c dc,h,v,p: 41% 17% 31% 11%\n",
      "\u001b[1;36m[libx264 @ 0x55f8f6ca49c0] \u001b[0mWeighted P-Frames: Y:0.0% UV:0.0%\n",
      "\u001b[1;36m[libx264 @ 0x55f8f6ca49c0] \u001b[0mref P L0: 58.5% 32.9%  7.1%  1.5%\n",
      "\u001b[1;36m[libx264 @ 0x55f8f6ca49c0] \u001b[0mref B L0: 97.5%  1.8%  0.7%\n",
      "\u001b[1;36m[libx264 @ 0x55f8f6ca49c0] \u001b[0mref B L1: 95.5%  4.5%\n",
      "\u001b[1;36m[libx264 @ 0x55f8f6ca49c0] \u001b[0mkb/s:359.43\n",
      "frame=   20 fps= 17 q=-1.0 Lsize=     177kB time=00:00:03.40 bitrate= 427.1kbits/s speed=2.84x    \n",
      "video:176kB audio:0kB subtitle:0kB other streams:0kB global headers:0kB muxing overhead: 0.616401%\n",
      "\u001b[1;36m[libx264 @ 0x5b30cad0e9c0] \u001b[0mframe I:2     Avg QP:21.65  size: 12048\n",
      "\u001b[1;36m[libx264 @ 0x5b30cad0e9c0] \u001b[0mframe P:6     Avg QP:23.09  size:  9235\n",
      "\u001b[1;36m[libx264 @ 0x5b30cad0e9c0] \u001b[0mframe B:12    Avg QP:23.46  size:  8351\n",
      "\u001b[1;36m[libx264 @ 0x5b30cad0e9c0] \u001b[0mconsecutive B-frames: 20.0%  0.0%  0.0% 80.0%\n",
      "\u001b[1;36m[libx264 @ 0x5b30cad0e9c0] \u001b[0mmb I  I16..4:  0.4% 86.5% 13.1%\n",
      "\u001b[1;36m[libx264 @ 0x5b30cad0e9c0] \u001b[0mmb P  I16..4:  0.4% 62.4% 13.8%  P16..4: 10.7%  9.8%  2.8%  0.0%  0.0%    skip: 0.0%\n",
      "\u001b[1;36m[libx264 @ 0x5b30cad0e9c0] \u001b[0mmb B  I16..4:  0.1% 26.9% 12.5%  B16..8: 26.8% 20.1%  7.4%  direct: 5.6%  skip: 0.6%  L0:44.1% L1:21.2% BI:34.7%\n",
      "\u001b[1;36m[libx264 @ 0x5b30cad0e9c0] \u001b[0m8x8 transform intra:76.8% inter:82.2%\n",
      "\u001b[1;36m[libx264 @ 0x5b30cad0e9c0] \u001b[0mcoded y,uvDC,uvAC intra: 98.4% 93.2% 61.0% inter: 89.2% 70.0% 3.8%\n",
      "\u001b[1;36m[libx264 @ 0x5b30cad0e9c0] \u001b[0mi16 v,h,dc,p: 20%  0%  0% 80%\n",
      "\u001b[1;36m[libx264 @ 0x5b30cad0e9c0] \u001b[0mi8 v,h,dc,ddl,ddr,vr,hd,vl,hu: 33% 10% 16%  4%  6%  7% 10%  7%  7%\n",
      "\u001b[1;36m[libx264 @ 0x5b30cad0e9c0] \u001b[0mi4 v,h,dc,ddl,ddr,vr,hd,vl,hu: 14% 12% 12%  9% 12% 10% 12%  9% 10%\n",
      "\u001b[1;36m[libx264 @ 0x5b30cad0e9c0] \u001b[0mi8c dc,h,v,p: 41% 17% 31% 11%\n",
      "\u001b[1;36m[libx264 @ 0x5b30cad0e9c0] \u001b[0mWeighted P-Frames: Y:0.0% UV:0.0%\n",
      "\u001b[1;36m[libx264 @ 0x5b30cad0e9c0] \u001b[0mref P L0: 58.5% 32.9%  7.1%  1.5%\n",
      "\u001b[1;36m[libx264 @ 0x5b30cad0e9c0] \u001b[0mref B L0: 97.5%  1.8%  0.7%\n",
      "\u001b[1;36m[libx264 @ 0x5b30cad0e9c0] \u001b[0mref B L1: 95.5%  4.5%\n",
      "\u001b[1;36m[libx264 @ 0x5b30cad0e9c0] \u001b[0mkb/s:359.43\n",
      "frame=   20 fps= 16 q=-1.0 Lsize=     177kB time=00:00:03.40 bitrate= 427.1kbits/s speed=2.81x    \n",
      "video:176kB audio:0kB subtitle:0kB other streams:0kB global headers:0kB muxing overhead: 0.616401%\n",
      "\u001b[1;36m[libx264 @ 0x5618d59ca9c0] \u001b[0mframe I:2     Avg QP:21.65  size: 12048\n",
      "\u001b[1;36m[libx264 @ 0x5618d59ca9c0] \u001b[0mframe P:6     Avg QP:23.09  size:  9235\n",
      "\u001b[1;36m[libx264 @ 0x5618d59ca9c0] \u001b[0mframe B:12    Avg QP:23.46  size:  8351\n",
      "\u001b[1;36m[libx264 @ 0x5618d59ca9c0] \u001b[0mconsecutive B-frames: 20.0%  0.0%  0.0% 80.0%\n",
      "\u001b[1;36m[libx264 @ 0x5618d59ca9c0] \u001b[0mmb I  I16..4:  0.4% 86.5% 13.1%\n",
      "\u001b[1;36m[libx264 @ 0x5618d59ca9c0] \u001b[0mmb P  I16..4:  0.4% 62.4% 13.8%  P16..4: 10.7%  9.8%  2.8%  0.0%  0.0%    skip: 0.0%\n",
      "\u001b[1;36m[libx264 @ 0x5618d59ca9c0] \u001b[0mmb B  I16..4:  0.1% 26.9% 12.5%  B16..8: 26.8% 20.1%  7.4%  direct: 5.6%  skip: 0.6%  L0:44.1% L1:21.2% BI:34.7%\n",
      "\u001b[1;36m[libx264 @ 0x5618d59ca9c0] \u001b[0m8x8 transform intra:76.8% inter:82.2%\n",
      "\u001b[1;36m[libx264 @ 0x5618d59ca9c0] \u001b[0mcoded y,uvDC,uvAC intra: 98.4% 93.2% 61.0% inter: 89.2% 70.0% 3.8%\n",
      "\u001b[1;36m[libx264 @ 0x5618d59ca9c0] \u001b[0mi16 v,h,dc,p: 20%  0%  0% 80%\n",
      "\u001b[1;36m[libx264 @ 0x5618d59ca9c0] \u001b[0mi8 v,h,dc,ddl,ddr,vr,hd,vl,hu: 33% 10% 16%  4%  6%  7% 10%  7%  7%\n",
      "\u001b[1;36m[libx264 @ 0x5618d59ca9c0] \u001b[0mi4 v,h,dc,ddl,ddr,vr,hd,vl,hu: 14% 12% 12%  9% 12% 10% 12%  9% 10%\n",
      "\u001b[1;36m[libx264 @ 0x5618d59ca9c0] \u001b[0mi8c dc,h,v,p: 41% 17% 31% 11%\n",
      "\u001b[1;36m[libx264 @ 0x5618d59ca9c0] \u001b[0mWeighted P-Frames: Y:0.0% UV:0.0%\n",
      "\u001b[1;36m[libx264 @ 0x5618d59ca9c0] \u001b[0mref P L0: 58.5% 32.9%  7.1%  1.5%\n",
      "\u001b[1;36m[libx264 @ 0x5618d59ca9c0] \u001b[0mref B L0: 97.5%  1.8%  0.7%\n",
      "\u001b[1;36m[libx264 @ 0x5618d59ca9c0] \u001b[0mref B L1: 95.5%  4.5%\n",
      "\u001b[1;36m[libx264 @ 0x5618d59ca9c0] \u001b[0mkb/s:359.43\n",
      "ffmpeg version 4.4.2-0ubuntu0.22.04.1 Copyright (c) 2000-2021 the FFmpeg developers\n",
      "  built with gcc 11 (Ubuntu 11.2.0-19ubuntu1)\n",
      "  configuration: --prefix=/usr --extra-version=0ubuntu0.22.04.1 --toolchain=hardened --libdir=/usr/lib/x86_64-linux-gnu --incdir=/usr/include/x86_64-linux-gnu --arch=amd64 --enable-gpl --disable-stripping --enable-gnutls --enable-ladspa --enable-libaom --enable-libass --enable-libbluray --enable-libbs2b --enable-libcaca --enable-libcdio --enable-libcodec2 --enable-libdav1d --enable-libflite --enable-libfontconfig --enable-libfreetype --enable-libfribidi --enable-libgme --enable-libgsm --enable-libjack --enable-libmp3lame --enable-libmysofa --enable-libopenjpeg --enable-libopenmpt --enable-libopus --enable-libpulse --enable-librabbitmq --enable-librubberband --enable-libshine --enable-libsnappy --enable-libsoxr --enable-libspeex --enable-libsrt --enable-libssh --enable-libtheora --enable-libtwolame --enable-libvidstab --enable-libvorbis --enable-libvpx --enable-libwebp --enable-libx265 --enable-libxml2 --enable-libxvid --enable-libzimg --enable-libzmq --enable-libzvbi --enable-lv2 --enable-omx --enable-openal --enable-opencl --enable-opengl --enable-sdl2 --enable-pocketsphinx --enable-librsvg --enable-libmfx --enable-libdc1394 --enable-libdrm --enable-libiec61883 --enable-chromaprint --enable-frei0r --enable-libx264 --enable-shared\n",
      "  libavutil      56. 70.100 / 56. 70.100\n",
      "  libavcodec     58.134.100 / 58.134.100\n",
      "  libavformat    58. 76.100 / 58. 76.100\n",
      "  libavdevice    58. 13.100 / 58. 13.100\n",
      "  libavfilter     7.110.100 /  7.110.100\n",
      "  libswscale      5.  9.100 /  5.  9.100\n",
      "  libswresample   3.  9.100 /  3.  9.100\n",
      "  libpostproc    55.  9.100 / 55.  9.100\n",
      "Input #0, mov,mp4,m4a,3gp,3g2,mj2, from '/tmp/tmp4wonlmtr.mp4':\n",
      "  Metadata:\n",
      "    major_brand     : isom\n",
      "    minor_version   : 512\n",
      "    compatible_brands: isomiso2mp41\n",
      "    encoder         : Lavf59.27.100\n",
      "  Duration: 00:00:04.00, start: 0.000000, bitrate: 510 kb/s\n",
      "  Stream #0:0(und): Video: mpeg4 (Simple Profile) (mp4v / 0x7634706D), yuv420p, 256x256 [SAR 1:1 DAR 1:1], 508 kb/s, 5 fps, 5 tbr, 10240 tbn, 5 tbc (default)\n",
      "    Metadata:\n",
      "      handler_name    : VideoHandler\n",
      "      vendor_id       : [0][0][0][0]\n",
      "Stream mapping:\n",
      "  Stream #0:0 -> #0:0 (mpeg4 (native) -> h264 (libx264))\n",
      "Press [q] to stop, [?] for help\n",
      "\u001b[1;36m[libx264 @ 0x555aca3339c0] \u001b[0musing SAR=1/1\n",
      "\u001b[1;36m[libx264 @ 0x555aca3339c0] \u001b[0musing cpu capabilities: MMX2 SSE2Fast SSSE3 SSE4.2 AVX FMA3 BMI2 AVX2 AVX512\n",
      "\u001b[1;36m[libx264 @ 0x555aca3339c0] \u001b[0mprofile High, level 1.2, 4:2:0, 8-bit\n",
      "\u001b[1;36m[libx264 @ 0x555aca3339c0] \u001b[0m264 - core 163 r3060 5db6aa6 - H.264/MPEG-4 AVC codec - Copyleft 2003-2021 - http://www.videolan.org/x264.html - options: cabac=1 ref=3 deblock=1:0:0 analyse=0x3:0x113 me=hex subme=7 psy=1 psy_rd=1.00:0.00 mixed_ref=1 me_range=16 chroma_me=1 trellis=1 8x8dct=1 cqm=0 deadzone=21,11 fast_pskip=1 chroma_qp_offset=-2 threads=3 lookahead_threads=1 sliced_threads=0 nr=0 decimate=1 interlaced=0 bluray_compat=0 constrained_intra=0 bframes=3 b_pyramid=2 b_adapt=1 b_bias=0 direct=1 weightb=1 open_gop=0 weightp=2 keyint=250 keyint_min=5 scenecut=40 intra_refresh=0 rc_lookahead=40 rc=crf mbtree=1 crf=23.0 qcomp=0.60 qpmin=0 qpmax=69 qpstep=4 ip_ratio=1.40 aq=1:1.00\n",
      "Output #0, mp4, to '/content/output.mp4':\n",
      "  Metadata:\n",
      "    major_brand     : isom\n",
      "    minor_version   : 512\n",
      "    compatible_brands: isomiso2mp41\n",
      "    encoder         : Lavf58.76.100\n",
      "  Stream #0:0(und): Video: h264 (avc1 / 0x31637661), yuv420p(progressive), 256x256 [SAR 1:1 DAR 1:1], q=2-31, 5 fps, 10240 tbn (default)\n",
      "    Metadata:\n",
      "      handler_name    : VideoHandler\n",
      "      vendor_id       : [0][0][0][0]\n",
      "      encoder         : Lavc58.134.100 libx264\n",
      "    Side data:\n",
      "      cpb: bitrate max/min/avg: 0/0/0 buffer size: 0 vbv_delay: N/A\n",
      "frame=   20 fps=0.0 q=-1.0 Lsize=     177kB time=00:00:03.40 bitrate= 427.1kbits/s speed=13.9x    \n",
      "video:176kB audio:0kB subtitle:0kB other streams:0kB global headers:0kB muxing overhead: 0.616401%\n",
      "\u001b[1;36m[libx264 @ 0x555aca3339c0] \u001b[0mframe I:2     Avg QP:21.65  size: 12048\n",
      "\u001b[1;36m[libx264 @ 0x555aca3339c0] \u001b[0mframe P:6     Avg QP:23.09  size:  9235\n",
      "\u001b[1;36m[libx264 @ 0x555aca3339c0] \u001b[0mframe B:12    Avg QP:23.46  size:  8351\n",
      "\u001b[1;36m[libx264 @ 0x555aca3339c0] \u001b[0mconsecutive B-frames: 20.0%  0.0%  0.0% 80.0%\n",
      "\u001b[1;36m[libx264 @ 0x555aca3339c0] \u001b[0mmb I  I16..4:  0.4% 86.5% 13.1%\n",
      "\u001b[1;36m[libx264 @ 0x555aca3339c0] \u001b[0mmb P  I16..4:  0.4% 62.4% 13.8%  P16..4: 10.7%  9.8%  2.8%  0.0%  0.0%    skip: 0.0%\n",
      "\u001b[1;36m[libx264 @ 0x555aca3339c0] \u001b[0mmb B  I16..4:  0.1% 26.9% 12.5%  B16..8: 26.8% 20.1%  7.4%  direct: 5.6%  skip: 0.6%  L0:44.1% L1:21.2% BI:34.7%\n",
      "\u001b[1;36m[libx264 @ 0x555aca3339c0] \u001b[0m8x8 transform intra:76.8% inter:82.2%\n",
      "\u001b[1;36m[libx264 @ 0x555aca3339c0] \u001b[0mcoded y,uvDC,uvAC intra: 98.4% 93.2% 61.0% inter: 89.2% 70.0% 3.8%\n",
      "\u001b[1;36m[libx264 @ 0x555aca3339c0] \u001b[0mi16 v,h,dc,p: 20%  0%  0% 80%\n",
      "\u001b[1;36m[libx264 @ 0x555aca3339c0] \u001b[0mi8 v,h,dc,ddl,ddr,vr,hd,vl,hu: 33% 10% 16%  4%  6%  7% 10%  7%  7%\n",
      "\u001b[1;36m[libx264 @ 0x555aca3339c0] \u001b[0mi4 v,h,dc,ddl,ddr,vr,hd,vl,hu: 14% 12% 12%  9% 12% 10% 12%  9% 10%\n",
      "\u001b[1;36m[libx264 @ 0x555aca3339c0] \u001b[0mi8c dc,h,v,p: 41% 17% 31% 11%\n",
      "\u001b[1;36m[libx264 @ 0x555aca3339c0] \u001b[0mWeighted P-Frames: Y:0.0% UV:0.0%\n",
      "\u001b[1;36m[libx264 @ 0x555aca3339c0] \u001b[0mref P L0: 58.5% 32.9%  7.1%  1.5%\n",
      "\u001b[1;36m[libx264 @ 0x555aca3339c0] \u001b[0mref B L0: 97.5%  1.8%  0.7%\n",
      "\u001b[1;36m[libx264 @ 0x555aca3339c0] \u001b[0mref B L1: 95.5%  4.5%\n",
      "\u001b[1;36m[libx264 @ 0x555aca3339c0] \u001b[0mkb/s:359.43\n",
      "ffmpeg version 4.4.2-0ubuntu0.22.04.1 Copyright (c) 2000-2021 the FFmpeg developers\n",
      "  built with gcc 11 (Ubuntu 11.2.0-19ubuntu1)\n",
      "  configuration: --prefix=/usr --extra-version=0ubuntu0.22.04.1 --toolchain=hardened --libdir=/usr/lib/x86_64-linux-gnu --incdir=/usr/include/x86_64-linux-gnu --arch=amd64 --enable-gpl --disable-stripping --enable-gnutls --enable-ladspa --enable-libaom --enable-libass --enable-libbluray --enable-libbs2b --enable-libcaca --enable-libcdio --enable-libcodec2 --enable-libdav1d --enable-libflite --enable-libfontconfig --enable-libfreetype --enable-libfribidi --enable-libgme --enable-libgsm --enable-libjack --enable-libmp3lame --enable-libmysofa --enable-libopenjpeg --enable-libopenmpt --enable-libopus --enable-libpulse --enable-librabbitmq --enable-librubberband --enable-libshine --enable-libsnappy --enable-libsoxr --enable-libspeex --enable-libsrt --enable-libssh --enable-libtheora --enable-libtwolame --enable-libvidstab --enable-libvorbis --enable-libvpx --enable-libwebp --enable-libx265 --enable-libxml2 --enable-libxvid --enable-libzimg --enable-libzmq --enable-libzvbi --enable-lv2 --enable-omx --enable-openal --enable-opencl --enable-opengl --enable-sdl2 --enable-pocketsphinx --enable-librsvg --enable-libmfx --enable-libdc1394 --enable-libdrm --enable-libiec61883 --enable-chromaprint --enable-frei0r --enable-libx264 --enable-shared\n",
      "  libavutil      56. 70.100 / 56. 70.100\n",
      "  libavcodec     58.134.100 / 58.134.100\n",
      "  libavformat    58. 76.100 / 58. 76.100\n",
      "  libavdevice    58. 13.100 / 58. 13.100\n",
      "  libavfilter     7.110.100 /  7.110.100\n",
      "  libswscale      5.  9.100 /  5.  9.100\n",
      "  libswresample   3.  9.100 /  3.  9.100\n",
      "  libpostproc    55.  9.100 / 55.  9.100\n",
      "Input #0, mov,mp4,m4a,3gp,3g2,mj2, from '/tmp/tmp4wonlmtr.mp4':\n",
      "  Metadata:\n",
      "    major_brand     : isom\n",
      "    minor_version   : 512\n",
      "    compatible_brands: isomiso2mp41\n",
      "    encoder         : Lavf59.27.100\n",
      "  Duration: 00:00:04.00, start: 0.000000, bitrate: 510 kb/s\n",
      "  Stream #0:0(und): Video: mpeg4 (Simple Profile) (mp4v / 0x7634706D), yuv420p, 256x256 [SAR 1:1 DAR 1:1], 508 kb/s, 5 fps, 5 tbr, 10240 tbn, 5 tbc (default)\n",
      "    Metadata:\n",
      "      handler_name    : VideoHandler\n",
      "      vendor_id       : [0][0][0][0]\n",
      "Stream mapping:\n",
      "  Stream #0:0 -> #0:0 (mpeg4 (native) -> h264 (libx264))\n",
      "Press [q] to stop, [?] for help\n",
      "\u001b[1;36m[libx264 @ 0x5cc199f609c0] \u001b[0musing SAR=1/1\n",
      "\u001b[1;36m[libx264 @ 0x5cc199f609c0] \u001b[0musing cpu capabilities: MMX2 SSE2Fast SSSE3 SSE4.2 AVX FMA3 BMI2 AVX2 AVX512\n",
      "\u001b[1;36m[libx264 @ 0x5cc199f609c0] \u001b[0mprofile High, level 1.2, 4:2:0, 8-bit\n",
      "\u001b[1;36m[libx264 @ 0x5cc199f609c0] \u001b[0m264 - core 163 r3060 5db6aa6 - H.264/MPEG-4 AVC codec - Copyleft 2003-2021 - http://www.videolan.org/x264.html - options: cabac=1 ref=3 deblock=1:0:0 analyse=0x3:0x113 me=hex subme=7 psy=1 psy_rd=1.00:0.00 mixed_ref=1 me_range=16 chroma_me=1 trellis=1 8x8dct=1 cqm=0 deadzone=21,11 fast_pskip=1 chroma_qp_offset=-2 threads=3 lookahead_threads=1 sliced_threads=0 nr=0 decimate=1 interlaced=0 bluray_compat=0 constrained_intra=0 bframes=3 b_pyramid=2 b_adapt=1 b_bias=0 direct=1 weightb=1 open_gop=0 weightp=2 keyint=250 keyint_min=5 scenecut=40 intra_refresh=0 rc_lookahead=40 rc=crf mbtree=1 crf=23.0 qcomp=0.60 qpmin=0 qpmax=69 qpstep=4 ip_ratio=1.40 aq=1:1.00\n",
      "Output #0, mp4, to '/content/output.mp4':\n",
      "  Metadata:\n",
      "    major_brand     : isom\n",
      "    minor_version   : 512\n",
      "    compatible_brands: isomiso2mp41\n",
      "    encoder         : Lavf58.76.100\n",
      "  Stream #0:0(und): Video: h264 (avc1 / 0x31637661), yuv420p(progressive), 256x256 [SAR 1:1 DAR 1:1], q=2-31, 5 fps, 10240 tbn (default)\n",
      "    Metadata:\n",
      "      handler_name    : VideoHandler\n",
      "      vendor_id       : [0][0][0][0]\n",
      "      encoder         : Lavc58.134.100 libx264\n",
      "    Side data:\n",
      "      cpb: bitrate max/min/avg: 0/0/0 buffer size: 0 vbv_delay: N/A\n",
      "frame=   20 fps=0.0 q=-1.0 Lsize=     177kB time=00:00:03.40 bitrate= 427.1kbits/s speed=7.39x    \n",
      "video:176kB audio:0kB subtitle:0kB other streams:0kB global headers:0kB muxing overhead: 0.616401%\n",
      "\u001b[1;36m[libx264 @ 0x5cc199f609c0] \u001b[0mframe I:2     Avg QP:21.65  size: 12048\n",
      "\u001b[1;36m[libx264 @ 0x5cc199f609c0] \u001b[0mframe P:6     Avg QP:23.09  size:  9235\n",
      "\u001b[1;36m[libx264 @ 0x5cc199f609c0] \u001b[0mframe B:12    Avg QP:23.46  size:  8351\n",
      "\u001b[1;36m[libx264 @ 0x5cc199f609c0] \u001b[0mconsecutive B-frames: 20.0%  0.0%  0.0% 80.0%\n",
      "\u001b[1;36m[libx264 @ 0x5cc199f609c0] \u001b[0mmb I  I16..4:  0.4% 86.5% 13.1%\n",
      "\u001b[1;36m[libx264 @ 0x5cc199f609c0] \u001b[0mmb P  I16..4:  0.4% 62.4% 13.8%  P16..4: 10.7%  9.8%  2.8%  0.0%  0.0%    skip: 0.0%\n",
      "\u001b[1;36m[libx264 @ 0x5cc199f609c0] \u001b[0mmb B  I16..4:  0.1% 26.9% 12.5%  B16..8: 26.8% 20.1%  7.4%  direct: 5.6%  skip: 0.6%  L0:44.1% L1:21.2% BI:34.7%\n",
      "\u001b[1;36m[libx264 @ 0x5cc199f609c0] \u001b[0m8x8 transform intra:76.8% inter:82.2%\n",
      "\u001b[1;36m[libx264 @ 0x5cc199f609c0] \u001b[0mcoded y,uvDC,uvAC intra: 98.4% 93.2% 61.0% inter: 89.2% 70.0% 3.8%\n",
      "\u001b[1;36m[libx264 @ 0x5cc199f609c0] \u001b[0mi16 v,h,dc,p: 20%  0%  0% 80%\n",
      "\u001b[1;36m[libx264 @ 0x5cc199f609c0] \u001b[0mi8 v,h,dc,ddl,ddr,vr,hd,vl,hu: 33% 10% 16%  4%  6%  7% 10%  7%  7%\n",
      "\u001b[1;36m[libx264 @ 0x5cc199f609c0] \u001b[0mi4 v,h,dc,ddl,ddr,vr,hd,vl,hu: 14% 12% 12%  9% 12% 10% 12%  9% 10%\n",
      "\u001b[1;36m[libx264 @ 0x5cc199f609c0] \u001b[0mi8c dc,h,v,p: 41% 17% 31% 11%\n",
      "\u001b[1;36m[libx264 @ 0x5cc199f609c0] \u001b[0mWeighted P-Frames: Y:0.0% UV:0.0%\n",
      "\u001b[1;36m[libx264 @ 0x5cc199f609c0] \u001b[0mref P L0: 58.5% 32.9%  7.1%  1.5%\n",
      "\u001b[1;36m[libx264 @ 0x5cc199f609c0] \u001b[0mref B L0: 97.5%  1.8%  0.7%\n",
      "\u001b[1;36m[libx264 @ 0x5cc199f609c0] \u001b[0mref B L1: 95.5%  4.5%\n",
      "\u001b[1;36m[libx264 @ 0x5cc199f609c0] \u001b[0mkb/s:359.43\n",
      "100% 10/10 [00:13<00:00,  1.37s/it]\n",
      "ffmpeg version 4.4.2-0ubuntu0.22.04.1 Copyright (c) 2000-2021 the FFmpeg developers\n",
      "  built with gcc 11 (Ubuntu 11.2.0-19ubuntu1)\n",
      "  configuration: --prefix=/usr --extra-version=0ubuntu0.22.04.1 --toolchain=hardened --libdir=/usr/lib/x86_64-linux-gnu --incdir=/usr/include/x86_64-linux-gnu --arch=amd64 --enable-gpl --disable-stripping --enable-gnutls --enable-ladspa --enable-libaom --enable-libass --enable-libbluray --enable-libbs2b --enable-libcaca --enable-libcdio --enable-libcodec2 --enable-libdav1d --enable-libflite --enable-libfontconfig --enable-libfreetype --enable-libfribidi --enable-libgme --enable-libgsm --enable-libjack --enable-libmp3lame --enable-libmysofa --enable-libopenjpeg --enable-libopenmpt --enable-libopus --enable-libpulse --enable-librabbitmq --enable-librubberband --enable-libshine --enable-libsnappy --enable-libsoxr --enable-libspeex --enable-libsrt --enable-libssh --enable-libtheora --enable-libtwolame --enable-libvidstab --enable-libvorbis --enable-libvpx --enable-libwebp --enable-libx265 --enable-libxml2 --enable-libxvid --enable-libzimg --enable-libzmq --enable-libzvbi --enable-lv2 --enable-omx --enable-openal --enable-opencl --enable-opengl --enable-sdl2 --enable-pocketsphinx --enable-librsvg --enable-libmfx --enable-libdc1394 --enable-libdrm --enable-libiec61883 --enable-chromaprint --enable-frei0r --enable-libx264 --enable-shared\n",
      "  libavutil      56. 70.100 / 56. 70.100\n",
      "  libavcodec     58.134.100 / 58.134.100\n",
      "  libavformat    58. 76.100 / 58. 76.100\n",
      "  libavdevice    58. 13.100 / 58. 13.100\n",
      "  libavfilter     7.110.100 /  7.110.100\n",
      "  libswscale      5.  9.100 /  5.  9.100\n",
      "  libswresample   3.  9.100 /  3.  9.100\n",
      "  libpostproc    55.  9.100 / 55.  9.100\n",
      "Input #0, mov,mp4,m4a,3gp,3g2,mj2, from '/tmp/tmppr9sctxv.mp4':\n",
      "  Metadata:\n",
      "    major_brand     : isom\n",
      "    minor_version   : 512\n",
      "    compatible_brands: isomiso2mp41\n",
      "    encoder         : Lavf59.27.100\n",
      "  Duration: 00:00:05.00, start: 0.000000, bitrate: 709 kb/s\n",
      "  Stream #0:0(und): Video: mpeg4 (Simple Profile) (mp4v / 0x7634706D), yuv420p, 256x256 [SAR 1:1 DAR 1:1], 707 kb/s, 5 fps, 5 tbr, 10240 tbn, 5 tbc (default)\n",
      "    Metadata:\n",
      "      handler_name    : VideoHandler\n",
      "      vendor_id       : [0][0][0][0]\n",
      "Stream mapping:\n",
      "  Stream #0:0 -> #0:0 (mpeg4 (native) -> h264 (libx264))\n",
      "Press [q] to stop, [?] for help\n",
      "\u001b[1;36m[libx264 @ 0x57749306ef40] \u001b[0musing SAR=1/1\n",
      "\u001b[1;36m[libx264 @ 0x57749306ef40] \u001b[0musing cpu capabilities: MMX2 SSE2Fast SSSE3 SSE4.2 AVX FMA3 BMI2 AVX2 AVX512\n",
      "\u001b[1;36m[libx264 @ 0x57749306ef40] \u001b[0mprofile High, level 1.2, 4:2:0, 8-bit\n",
      "\u001b[1;36m[libx264 @ 0x57749306ef40] \u001b[0m264 - core 163 r3060 5db6aa6 - H.264/MPEG-4 AVC codec - Copyleft 2003-2021 - http://www.videolan.org/x264.html - options: cabac=1 ref=3 deblock=1:0:0 analyse=0x3:0x113 me=hex subme=7 psy=1 psy_rd=1.00:0.00 mixed_ref=1 me_range=16 chroma_me=1 trellis=1 8x8dct=1 cqm=0 deadzone=21,11 fast_pskip=1 chroma_qp_offset=-2 threads=3 lookahead_threads=1 sliced_threads=0 nr=0 decimate=1 interlaced=0 bluray_compat=0 constrained_intra=0 bframes=3 b_pyramid=2 b_adapt=1 b_bias=0 direct=1 weightb=1 open_gop=0 weightp=2 keyint=250 keyint_min=5 scenecut=40 intra_refresh=0 rc_lookahead=40 rc=crf mbtree=1 crf=23.0 qcomp=0.60 qpmin=0 qpmax=69 qpstep=4 ip_ratio=1.40 aq=1:1.00\n",
      "Output #0, mp4, to '/content/output.mp4':\n",
      "  Metadata:\n",
      "    major_brand     : isom\n",
      "    minor_version   : 512\n",
      "    compatible_brands: isomiso2mp41\n",
      "    encoder         : Lavf58.76.100\n",
      "  Stream #0:0(und): Video: h264 (avc1 / 0x31637661), yuv420p(progressive), 256x256 [SAR 1:1 DAR 1:1], q=2-31, 5 fps, 10240 tbn (default)\n",
      "    Metadata:\n",
      "      handler_name    : VideoHandler\n",
      "      vendor_id       : [0][0][0][0]\n",
      "      encoder         : Lavc58.134.100 libx264\n",
      "    Side data:\n",
      "      cpb: bitrate max/min/avg: 0/0/0 buffer size: 0 vbv_delay: N/A\n",
      "frame=   25 fps=0.0 q=-1.0 Lsize=     391kB time=00:00:04.40 bitrate= 728.5kbits/s speed=10.8x    \n",
      "video:390kB audio:0kB subtitle:0kB other streams:0kB global headers:0kB muxing overhead: 0.246186%\n",
      "\u001b[1;36m[libx264 @ 0x57749306ef40] \u001b[0mframe I:1     Avg QP:25.00  size: 17919\n",
      "\u001b[1;36m[libx264 @ 0x57749306ef40] \u001b[0mframe P:24    Avg QP:24.63  size: 15879\n",
      "\u001b[1;36m[libx264 @ 0x57749306ef40] \u001b[0mmb I  I16..4:  0.0% 98.8%  1.2%\n",
      "\u001b[1;36m[libx264 @ 0x57749306ef40] \u001b[0mmb P  I16..4:  0.0% 79.7%  4.7%  P16..4:  3.3%  5.9%  6.4%  0.0%  0.0%    skip: 0.0%\n",
      "\u001b[1;36m[libx264 @ 0x57749306ef40] \u001b[0m8x8 transform intra:94.6% inter:98.4%\n",
      "\u001b[1;36m[libx264 @ 0x57749306ef40] \u001b[0mcoded y,uvDC,uvAC intra: 100.0% 22.4% 0.0% inter: 100.0% 28.0% 0.0%\n",
      "\u001b[1;36m[libx264 @ 0x57749306ef40] \u001b[0mi8 v,h,dc,ddl,ddr,vr,hd,vl,hu:  1% 49% 21%  1%  7%  1% 12%  1%  6%\n",
      "\u001b[1;36m[libx264 @ 0x57749306ef40] \u001b[0mi4 v,h,dc,ddl,ddr,vr,hd,vl,hu:  2% 30% 10%  4% 12%  4% 24%  2% 13%\n",
      "\u001b[1;36m[libx264 @ 0x57749306ef40] \u001b[0mi8c dc,h,v,p: 64% 18% 18%  0%\n",
      "\u001b[1;36m[libx264 @ 0x57749306ef40] \u001b[0mWeighted P-Frames: Y:62.5% UV:37.5%\n",
      "\u001b[1;36m[libx264 @ 0x57749306ef40] \u001b[0mref P L0: 37.7% 22.0% 12.9% 15.6% 11.8%\n",
      "\u001b[1;36m[libx264 @ 0x57749306ef40] \u001b[0mkb/s:638.42\n",
      "100% 50/50 [00:18<00:00,  2.67it/s]\n"
     ]
    }
   ],
   "source": [
    "'''\n",
    "after starting the server then click on the link 'your url is: ' then a window would open up asking for a\n",
    "ip address then just paste the ip address in the external link there and move forward.\n",
    "\n",
    "id addess format -  num1.num2.num3.num4\n",
    "\n",
    "number after : is port number and not part of ip address\n",
    "'''\n",
    "\n",
    "\n",
    "!streamlit run app.py &  npx localtunnel --port 8501"
   ]
  },
  {
   "cell_type": "code",
   "execution_count": 3,
   "metadata": {
    "id": "s5M6GVExzG6f"
   },
   "outputs": [],
   "source": []
  }
 ],
 "metadata": {
  "accelerator": "GPU",
  "colab": {
   "gpuType": "T4",
   "provenance": []
  },
  "kernelspec": {
   "display_name": "Python 3 (ipykernel)",
   "language": "python",
   "name": "python3"
  },
  "language_info": {
   "codemirror_mode": {
    "name": "ipython",
    "version": 3
   },
   "file_extension": ".py",
   "mimetype": "text/x-python",
   "name": "python",
   "nbconvert_exporter": "python",
   "pygments_lexer": "ipython3",
   "version": "3.11.2"
  }
 },
 "nbformat": 4,
 "nbformat_minor": 4
}
